<svg version="1.2" xmlns="http://www.w3.org/2000/svg" viewBox="0 0 840 712" width="840" height="712">
  <title>FIRSTicon_OneColorTM-ai-svg</title>
  <style>
    .s0 { fill: #bbbdbf }
    .s1 { fill: #231f20 }
  </style>
  <g id="Layer 1">
    <path id="&lt;Path&gt;" class="s0" d="m128.6 443.8l-6.1 31 59-25.3q-5.7-11.9-9.1-24.4z"/>
    <path id="&lt;Compound Path&gt;" fill-rule="evenodd" class="s1"
          d="m840 369.7l-227 236.3-73.1-70.1c-38.5 19.9-85.2 31.6-135.6 31.6-72.9 0-137.8-24.4-181.2-62.6q-0.3-0.3-0.8-0.8l-182.1 79.7v0.1l-40.2-4.2 86.4-472.3 40-4.2 0.2-0.2v0.2l111.6 105.9c41.5-25.6 100.9-45.3 158.5-45.3 39.5 0 91.6 10.3 124.7 23.1l80.2-83.4 238.2 227.7h0.2zm-594.9-154l3.3 3.1 37.2 35.4 0.5 0.3c30.8-20.6 72.3-33.3 118.2-33.3 26.1 0 51 4.2 73.3 11.5v-0.1l35.5-36.9 1.5-1.5c-32-11.5-82.2-21.2-119.9-21.2-56.4 0-109 18.2-149.6 42.7zm342.6 240.2c25.5-24.5 41.7-53.4 46.6-83.7 1.1-7.2 1.8-14.1 1.8-20.8 0-36.1-16.4-74.5-44-103.3l-32.2 33.7c12.9 18.2 21 42 21 63.1 0 7.4-1 14.9-2.9 22.4-4.5 18.6-14.4 35.8-29.4 51.2-14.9 15.3-34.5 28.2-56.8 37.5-9.7 4.1-20.1 7.4-30.8 10.1-18.9 4.7-38.5 7-58.2 7-24.6 0-48.4-3.5-70.9-10.5-29.4-9.2-54.9-24-73.8-42.7-6.8-6.9-12.7-14.2-17.5-21.9-6.2-9.9-10.8-20.1-13.3-30.7-1.8-7.5-2.7-15-2.7-22.4 0-8.9 1.2-17.8 3.9-26.6l-37.8-38.4c-14.3 22.6-21.5 46.6-21.5 71.5 0 6.7 0.7 13.6 1.9 20.8 2.7 16 8.3 31.8 17.2 46.8 4.2 7.2 9.2 14.4 14.9 21.3 15.1 18.1 34.2 33.8 56.9 46.7 41.2 23.4 90.6 35.8 142.7 35.8 36.6 0 71.8-6 104.4-18 9.6-3.6 18.8-7.6 27.5-11.9 20.2-10.2 38-22.8 53-37zm-372.1 42.2c-14.4-14.3-26.1-30.2-34.1-47.2l-51.9 22.2v0.3l-10.2 4.2 6-30.8 38-198.8 3.8-20.8 3.2 3.2 161.5 150.3-68.6 32.2c0.4 0.3 0.5 0.6 0.9 1 13.7 13.7 31.4 25.1 51.5 33.6l89.6-40.7-28.7-27.4v-29.3l-67.4-64.3-28.3-27-37.2-35.1-118.7-112.5-83 462.9zm196-85.1l-85.7 38.5q4.2 1.5 8.6 2.9c21.4 6.7 44.5 10.2 68.1 10.2 19.1 0 37.8-2.4 55.7-6.7l-38.6-37.2zm-118.9-34l-44.8-44.5c-5.9 8.7-10.3 18.1-12.9 27.8q0.2 1.5 0.5 3c2.3 9.6 6.5 19.1 12.2 28.1 0.3 0.5 0.8 1.2 1.3 1.9zm-132-27.6c0-27.8 8.2-54.3 24.4-78.9l-14.6-14.4-35.3 184 37-15.9c-2.8-10.7-9.7-37.9-9.7-49.2 0-0.7 0-1.7 0.2-2.9q-0.2-0.3-0.2-0.8c-1.3-7.7-1.8-14.9-1.8-21.9zm243.4-88.1c-33 0-63.7 6.7-89.8 18.1l60.8 57.6 69.3-72.2c-12.9-2.2-26.5-3.5-40.3-3.5zm430.3 73.3l-233-223-88.5 92.3-35.5 36.8-32.5 34-65 67.6 27.3 25.8 40.2 38.7 40.9 39.1c19.5-8 36.6-19 50.2-31.9l-62-60.3-13.2-12.9 3.9-4.2 45.8-47.5 24.3-25.5 35.5-36.9 32.5-33.7 143.6 137.9-15.2 16.1-3.6 3.7-117.8 122.2q-0.2 0.5-0.5 0.8c-12.4 16.9-28.5 32.3-47.4 45.2l48.4 46.6zm-191.5 38c0 21.6-6.9 51.5-17.2 76l98.5-102.8-119-114.4-7.7 8.1c29.3 30.3 46.9 71.1 46.9 109.6 0 6.6-0.7 13.4-1.7 20.3q0.2 1.8 0.2 3.2zm-73.3-9.6c0.6-3 1.1-6 1.6-9.2-6.6-18.4-19-35.3-36.1-49.4l-47.6 49.6 56.3 54.7c13.1-13.9 21.8-29.3 25.8-45.7z"/>
    <g id="&lt;Group&gt;">
      <path id="&lt;Compound Path&gt;" class="s1" d="m640.3 595.7h-4.4v-1.7h10.8v1.7h-4.6v12.8h-1.8z"/>
      <path id="&lt;Compound Path&gt;" class="s1"
            d="m660.2 602.2c-0.2-2-0.3-4.5-0.3-6.4q-0.7 2.5-1.9 5.5l-2.5 7.2h-1.5l-2.3-7q-1-3-1.7-5.7c-0.2 1.9-0.2 4.4-0.3 6.5l-0.4 6.2h-1.8l1-14.5h2.3l2.6 7c0.6 1.8 1.1 3.4 1.5 4.9q0.6-2.2 1.6-4.9l2.5-7h2.4l1 14.5h-1.8z"/>
    </g>
  </g>
</svg>