<?xml version="1.0" encoding="UTF-8"?>
<svg width="448px" height="114px" viewBox="0 0 448 114" version="1.1" xmlns="http://www.w3.org/2000/svg" xmlns:xlink="http://www.w3.org/1999/xlink">
    <!-- Generator: Sketch 60.1 (88133) - https://sketch.com -->
    <title>boku</title>
    <desc>Created with Sketch.</desc>
    <g id="Page-1" stroke="none" stroke-width="1" fill="none" fill-rule="evenodd">
        <g id="Artboard" transform="translate(-1515.000000, -30.000000)" fill-rule="nonzero">
            <g id="boku" transform="translate(1515.000000, 30.000000)">
                <path d="M19.1,48.5 C13.9,48.6 9.4,50.6 5.8,54.5 C2.1,58.4 0.4,63.1 0.4,68.5 C0.5,74 2.4,78.6 6.2,82.4 C10,86.2 14.4,88.1 19.7,88 C25,87.9 29.5,86 33.1,82.1 C36.7,78.2 38.5,73.5 38.4,68 C38.3,62.5 36.4,57.9 32.7,54.1 C28.9,50.3 24.4,48.4 19.1,48.5 Z" id="Path" fill="#FF671D"></path>
                <g id="Group" transform="translate(70.000000, 0.000000)" fill="#222222">
                    <path d="M143.3,23.1 C130.4,23.1 119.6,27.5 110.7,36.2 C101.8,44.9 97.4,55.6 97.4,68.2 C97.4,80.7 101.8,91.3 110.6,100.1 C119.4,108.9 130.1,113.3 142.5,113.3 C155.1,113.3 165.7,108.9 174.5,100.1 C183.3,91.3 187.7,80.7 187.7,68.1 C187.7,55.8 183.3,45.2 174.6,36.3 C165.9,27.6 155.5,23.1 143.3,23.1 Z M156.2,82.1 C152.6,86 148.1,88 142.8,88 C137.6,88.1 133.1,86.2 129.3,82.4 C125.5,78.6 123.6,73.9 123.5,68.5 C123.4,63 125.2,58.4 128.9,54.5 C132.5,50.6 137,48.6 142.2,48.5 C147.5,48.4 152,50.3 155.7,54.1 C159.4,57.9 161.3,62.5 161.4,68 C161.6,73.5 159.8,78.2 156.2,82.1 Z" id="Shape"></path>
                    <path d="M46,23.1 C38.6,23.1 31.8,24.6 25.7,27.5 L25.7,0.9 L0.1,0.9 C0.1,0.9 0.1,67.7 0.1,68.3 C0.1,80.8 4.5,91.4 13.3,100.2 C22.1,109 32.8,113.4 45.2,113.4 C57.8,113.4 68.4,109 77.2,100.2 C86,91.4 90.4,80.8 90.4,68.2 C90.4,55.9 86,45.3 77.3,36.4 C68.6,27.6 58.2,23.1 46,23.1 Z M58.7,82.3 C55,86.1 50.5,88.1 45.2,88.1 C40,88.1 35.5,86.2 31.8,82.3 C28.1,78.4 26.2,73.8 26.2,68.3 C26.2,62.8 28.1,58.2 31.7,54.3 C35.4,50.4 39.9,48.5 45.1,48.5 C50.4,48.5 54.9,50.4 58.6,54.3 C62.3,58.1 64.1,62.8 64.1,68.3 C64.2,73.7 62.4,78.4 58.7,82.3 Z" id="Shape"></path>
                    <polygon id="Path" points="281 25.3 252.5 25.3 222.2 67.1 222.2 0.9 196.5 0.9 196.5 111.5 216.5 111.5 238.7 81.7 260.3 111.4 289.7 111.4 253.2 62.4"></polygon>
                    <path d="M351.8,25.2 C351.8,25.2 351.8,62.7 351.8,68.2 C351.8,73.7 349.3,78.4 345.7,82.2 C342,86 337.5,88 332.2,88 C327,88 322.5,86.1 318.8,82.2 C315.1,78.3 312.7,73.7 312.7,68.2 C312.7,62.7 312.7,25.3 312.7,25.3 L287,25.3 C287,25.3 287,55.6 287,68.2 C287,80.7 291.4,91.3 300.2,100.1 C309,108.9 319.7,113.3 332.1,113.3 C344.7,113.3 355.3,108.9 364.1,100.1 C372.9,91.3 377.3,80.7 377.3,68.1 C377.3,55.8 377.3,25.1 377.3,25.1 L351.8,25.1 L351.8,25.2 Z" id="Path"></path>
                </g>
            </g>
        </g>
    </g>
</svg>