<svg version="1.2" xmlns="http://www.w3.org/2000/svg" viewBox="0 0 384 361" width="384" height="361">
	<title>CCA Vector LOGO color-ai</title>
	<defs>
		<clipPath clipPathUnits="userSpaceOnUse" id="cp1">
			<path d="m0.68 8.81v374.57h382.29v-374.57z"/>
		</clipPath>
		<clipPath clipPathUnits="userSpaceOnUse" id="cp2">
			<path d="m0.68 8.81v374.57h382.29v-374.57z"/>
		</clipPath>
	</defs>
	<style>
		.s0 { fill: #fefefe;stroke: #fefefe;stroke-width: 10 } 
		.s1 { fill: #fefefe;stroke: #fefefe;stroke-width: 15 } 
		.s2 { fill: #221e1f } 
		.s3 { fill: #b2a37c } 
		.s4 { fill: none;stroke: #050505;stroke-width: .4 } 
		.s5 { fill: #a31e36 } 
		.s6 { fill: #070707 } 
		.s7 { fill: none;stroke: #070707;stroke-width: 1.6 } 
		.s8 { fill: none;stroke: #070707;stroke-width: .4 } 
		.s9 { fill: #d1d3d3 } 
		.s10 { fill: #a7a9ac } 
		.s11 { fill: #fefefe } 
		.s12 { fill: none;stroke: #221e1f;stroke-width: .6 } 
		.s13 { fill: none;stroke: #050505;stroke-width: .6 } 
		.s14 { fill: #fef6e5 } 
		.s15 { fill: none;stroke: #050505;stroke-width: 1.1 } 
		.s16 { fill: #070606 } 
		.s17 { fill: none;stroke: #fefefe;stroke-width: 1.6 } 
	</style>
	<g id="Layer 1">
		<g id="&lt;Group&gt;">
			<path id="&lt;Path&gt;" class="s0" d="m159.2 352.6l6 3.1c0 0 38.8-12.5 48.7-10.8 9.9 1.7 52.9 20.1 72.7 4.5 0 0-35.1-3.6-44.7-7.6 0 0 18.4-15.3 19.8-23.2 0 0-13.9 1.1-36.5 15.3-22.7 14.1-66 18.7-66 18.7z"/>
			<path id="&lt;Path&gt;" class="s0" d="m254.5 335.1c0 0 4.9-1.9 11.4-13.1 6.5-11.3 15.9-22.1 24.6-27.2 0 0 2.5 12.8-1.9 20.3-4.3 7.5-22.8 22.1-34.1 20z"/>
			<path id="&lt;Path&gt;" class="s0" d="m260.2 339.5c0 0 36.5 15.7 54-6.7 0 0-13 0.6-18.3 0.3-5.3-0.3-18.5-0.9-35.7 6.4z"/>
			<path id="&lt;Path&gt;" class="s0" d="m287.8 326.2c0 0 38.5 5.4 51.4-24.3 0 0-9.8 3.2-15.8 4.2-6 0.9-12.6 6.1-21 12.5-8.5 6.4-14.6 7.6-14.6 7.6z"/>
			<path id="&lt;Path&gt;" class="s0" d="m311.7 297.6c4.9-15.4-4.7-17.8-1.5-30.8 0 0-8.6 10.3-11.1 17.8-2.6 7.4-2.4 27-7.6 34.3 0 0 15.2-6 20.2-21.3z"/>
			<path id="&lt;Path&gt;" class="s0" d="m316.6 292.7c0 0 12.5-14.6 11.4-28.1-1-13.6-6.8-18.5-6.4-25.9 0 0-10.5 29-5 54z"/>
			<path id="&lt;Path&gt;" class="s0" d="m351.9 254.5c3.8-2.6 10.9-11 13-29.4 0 0-19.7 10.3-25 37.2 0 0 8.1-5.3 12-7.8z"/>
			<path id="&lt;Path&gt;" class="s0" d="m332.8 267.4c0 0 7.5-17.8 6-29.1-1.5-11.2-9-17.4-10.4-20.3 0 0-4.9 31 4.4 49.4z"/>
			<path id="&lt;Path&gt;" class="s0" d="m347 234.6c0 0 18-14.1 9.4-35.8 0 0-12.5 21.6-9.4 35.8z"/>
			<path id="&lt;Path&gt;" class="s0" d="m328.4 190.2c0 0 19.9 16.1 13.4 42 0 0-5.9-5.3-10.1-17.5-4.2-12.3-3.3-24.5-3.3-24.5z"/>
			<path id="&lt;Path&gt;" class="s0" d="m349.6 203.4c0 0 10.2-14.3-2.2-30.3 0 0-7.7 14.1 2.2 30.3z"/>
			<path id="&lt;Path&gt;" class="s0" d="m345.1 208.6c0 0 4.2-17.3-17-37 0 0 0.8 11.3 6.9 20.7 7.3 11.2 10.1 16.3 10.1 16.3z"/>
			<path id="&lt;Path&gt;" class="s0" d="m341.2 180.7c0 0 4.5-13.1-15.8-23.7 0 0 4.4 19.3 15.8 23.7z"/>
			<path id="&lt;Path&gt;" class="s0" d="m342.9 172c0 0 7.5-4.1-1.6-18.1 0 0-3.6 8.7 1.6 18.1z"/>
			<path id="&lt;Path&gt;" class="s0" d="m327.7 146.6c11.8 5.8 10.3 16.2 10.3 16.2 0 0-9.6-5.6-10.3-16.2z"/>
			<path id="&lt;Path&gt;" class="s0" d="m222.9 352l-6 3.1c0 0-38.7-12.5-48.6-10.8-9.9 1.7-53 20.1-72.8 4.5 0 0 35.1-3.6 44.7-7.6 0 0-18.4-15.3-19.8-23.2 0 0 13.9 1.1 36.5 15.3 22.7 14.1 66 18.7 66 18.7z"/>
			<path id="&lt;Path&gt;" class="s0" d="m127.6 334.5c0 0-4.8-1.9-11.4-13.1-6.5-11.2-15.9-22.1-24.5-27.2 0 0-2.5 12.8 1.8 20.3 4.4 7.5 22.8 22.1 34.1 20z"/>
			<path id="&lt;Path&gt;" class="s0" d="m121.9 338.9c0 0-36.5 15.8-54-6.6 0 0 13.1 0.6 18.3 0.2 5.3-0.3 18.6-0.9 35.7 6.4z"/>
			<path id="&lt;Path&gt;" class="s0" d="m94.3 325.6c0 0-38.5 5.4-51.4-24.3 0 0 9.8 3.2 15.8 4.2 6 0.9 12.6 6.1 21.1 12.5 8.4 6.4 14.5 7.6 14.5 7.6z"/>
			<path id="&lt;Path&gt;" class="s0" d="m70.5 297c-5-15.4 4.7-17.8 1.4-30.8 0 0.1 8.6 10.3 11.2 17.8 2.5 7.5 2.3 27.1 7.5 34.3 0 0-15.2-6-20.1-21.3z"/>
			<path id="&lt;Path&gt;" class="s0" d="m65.5 292.1c0 0-12.5-14.6-11.4-28.1 1-13.6 6.8-18.5 6.4-25.9 0 0 10.5 29 5 54z"/>
			<path id="&lt;Path&gt;" class="s0" d="m30.3 253.9c-3.9-2.6-10.9-10.9-13-29.4 0 0 19.6 10.3 24.9 37.2 0 0-8-5.3-11.9-7.8z"/>
			<path id="&lt;Path&gt;" class="s0" d="m49.4 266.8c0 0-7.6-17.8-6.1-29.1 1.5-11.2 9-17.4 10.4-20.3 0 0 4.9 31-4.3 49.4z"/>
			<path id="&lt;Path&gt;" class="s0" d="m35.2 234c0 0-18.1-14.1-9.5-35.8 0 0 12.6 21.6 9.5 35.8z"/>
			<path id="&lt;Path&gt;" class="s0" d="m53.7 189.6c0 0-19.9 16.1-13.4 42 0 0 6-5.3 10.2-17.5 4.1-12.2 3.2-24.5 3.2-24.5z"/>
			<path id="&lt;Path&gt;" class="s0" d="m32.6 202.8c0 0-10.3-14.3 2.1-30.3 0 0 7.8 14.2-2.1 30.3z"/>
			<path id="&lt;Path&gt;" class="s0" d="m37 208.1c0 0-4.2-17.4 17-37.1 0 0-0.7 11.4-6.8 20.7-7.4 11.2-10.2 16.4-10.2 16.4z"/>
			<path id="&lt;Path&gt;" class="s0" d="m40.9 180.1c0 0-4.5-13 15.8-23.7 0 0-4.3 19.3-15.8 23.7z"/>
			<path id="&lt;Path&gt;" class="s0" d="m39.3 171.4c0 0-7.6-4.1 1.6-18.1 0 0 3.5 8.7-1.6 18.1z"/>
			<path id="&lt;Path&gt;" class="s0" d="m54.4 146c-11.8 5.8-10.2 16.2-10.2 16.2 0 0 9.6-5.5 10.2-16.2z"/>
			<path id="&lt;Path&gt;" class="s1" d="m190.4 9.3q-4.7 2.5-9.6 4.7c-35.9 16.1-77 16.1-113 0q-0.7 2-1.4 4c-39.6 111.5-0.3 231.6 97.5 298.2 9.9 6.7 18.9 15 26.5 24.7 7.6-9.7 16.5-18 26.4-24.7 97.9-66.6 137.2-186.7 97.6-298.2q-0.7-2-1.5-4c-35.9 16.1-77 16.1-112.9 0q-4.9-2.2-9.6-4.7z"/>
		</g>
		<g id="&lt;Group&gt;">
			<path id="&lt;Path&gt;" class="s2" d="m159.3 352.4l5.9 3.1c0 0 38.8-12.5 48.7-10.8 9.9 1.7 52.9 20.1 72.7 4.6 0 0-35.1-3.7-44.7-7.7 0 0 18.4-15.3 19.8-23.2 0 0-13.9 1.1-36.5 15.3-22.6 14.1-65.9 18.7-65.9 18.7z"/>
			<path id="&lt;Path&gt;" class="s2" d="m254.5 334.9c0 0 4.9-1.9 11.4-13.1 6.6-11.2 15.9-22.1 24.6-27.2 0 0 2.5 12.8-1.9 20.3-4.3 7.5-22.8 22.1-34.1 20z"/>
			<path id="&lt;Path&gt;" class="s2" d="m260.2 339.3c0 0 36.5 15.8 54-6.6 0 0-13 0.6-18.3 0.2-5.3-0.3-18.5-0.9-35.7 6.4z"/>
			<path id="&lt;Path&gt;" class="s2" d="m287.8 326c0 0 38.5 5.4 51.4-24.3 0 0-9.8 3.2-15.8 4.2-6 0.9-12.6 6.1-21 12.5-8.5 6.4-14.6 7.6-14.6 7.6z"/>
			<path id="&lt;Path&gt;" class="s2" d="m311.7 297.4c4.9-15.4-4.7-17.8-1.5-30.7 0 0-8.6 10.2-11.1 17.7-2.6 7.5-2.4 27.1-7.5 34.3 0 0 15.1-6 20.1-21.3z"/>
			<path id="&lt;Path&gt;" class="s2" d="m317.5 301.2c0 0 29.3-6.8 37.1-27.1 0 0 4-9.7 3.6-13.1 0 0-15.7 5.7-23.6 15.5-7.8 9.9-12.5 20-17.1 24.7z"/>
			<path id="&lt;Path&gt;" class="s2" d="m316.6 292.5c0 0 12.5-14.6 11.4-28.1-1-13.5-6.8-18.5-6.4-25.8 0 0-10.5 29-5 53.9z"/>
			<path id="&lt;Path&gt;" class="s2" d="m351.8 254.3c3.9-2.6 11-10.9 13.1-29.3 0 0-19.7 10.2-25 37.1 0 0 8.1-5.2 11.9-7.8z"/>
			<path id="&lt;Path&gt;" class="s2" d="m332.8 267.2c0 0 7.5-17.7 6-29-1.5-11.3-9-17.5-10.4-20.3 0 0-4.9 30.9 4.4 49.3z"/>
			<path id="&lt;Path&gt;" class="s2" d="m346.9 234.5c0 0 18.1-14.1 9.5-35.9 0 0-12.5 21.6-9.5 35.9z"/>
			<path id="&lt;Path&gt;" class="s2" d="m328.4 190c0 0 19.9 16.1 13.4 42 0 0-5.9-5.3-10.1-17.5-4.2-12.2-3.3-24.5-3.3-24.5z"/>
			<path id="&lt;Path&gt;" class="s2" d="m349.5 203.3c0 0 10.3-14.4-2.1-30.3 0 0-7.8 14.1 2.1 30.3z"/>
			<path id="&lt;Path&gt;" class="s2" d="m345.1 208.5c0 0 4.2-17.3-17-37 0 0 0.7 11.3 6.8 20.6 7.4 11.2 10.2 16.4 10.2 16.4z"/>
			<path id="&lt;Path&gt;" class="s2" d="m341.2 180.6c0 0 4.5-13.1-15.8-23.8 0 0 4.3 19.4 15.8 23.8z"/>
			<path id="&lt;Path&gt;" class="s2" d="m342.9 171.8c0 0 7.5-4-1.7-18 0 0-3.5 8.7 1.7 18z"/>
			<path id="&lt;Path&gt;" class="s2" d="m327.7 146.5c11.8 5.8 10.3 16.1 10.3 16.1 0 0-9.6-5.5-10.3-16.1z"/>
			<path id="&lt;Path&gt;" class="s2" d="m222.9 351.8l-5.9 3.1c0 0-38.8-12.5-48.7-10.8-9.9 1.7-52.9 20.1-72.7 4.6 0 0 35.1-3.7 44.7-7.7 0 0-18.4-15.3-19.8-23.2 0 0 13.8 1.2 36.5 15.3 22.6 14.1 65.9 18.7 65.9 18.7z"/>
			<path id="&lt;Path&gt;" class="s2" d="m127.6 334.3c0 0-4.8-1.9-11.3-13.1-6.6-11.2-16-22.1-24.6-27.2 0 0-2.5 12.8 1.9 20.3 4.3 7.5 22.8 22.1 34 20z"/>
			<path id="&lt;Path&gt;" class="s2" d="m122 338.7c0 0-36.5 15.8-54.1-6.6 0 0 13.1 0.6 18.4 0.3 5.3-0.4 18.5-1 35.7 6.3z"/>
			<path id="&lt;Path&gt;" class="s2" d="m94.4 325.4c0 0-38.6 5.4-51.4-24.3 0 0 9.8 3.3 15.8 4.2 6 0.9 12.5 6.1 21 12.5 8.5 6.4 14.6 7.6 14.6 7.6z"/>
			<path id="&lt;Path&gt;" class="s2" d="m70.5 296.8c-4.9-15.4 4.7-17.8 1.5-30.7 0 0 8.5 10.2 11.1 17.7 2.6 7.5 2.4 27.1 7.5 34.3 0 0-15.1-6-20.1-21.3z"/>
			<path id="&lt;Path&gt;" class="s2" d="m64.6 300.6c0 0-29.2-6.8-37.1-27.1 0 0-3.9-9.7-3.5-13.1 0 0 15.7 5.7 23.5 15.5 7.9 9.9 12.5 20 17.1 24.7z"/>
			<path id="&lt;Path&gt;" class="s2" d="m65.5 291.9c0 0-12.4-14.6-11.4-28.1 1.1-13.5 6.9-18.5 6.4-25.8 0 0 10.6 29 5 53.9z"/>
			<path id="&lt;Path&gt;" class="s2" d="m30.3 253.7c-3.8-2.5-10.9-10.9-13-29.3 0 0 19.7 10.2 25 37.1 0 0-8.1-5.2-12-7.8z"/>
			<path id="&lt;Path&gt;" class="s2" d="m49.4 266.6c0 0-7.6-17.7-6-29 1.5-11.3 8.9-17.4 10.4-20.3 0 0 4.9 30.9-4.4 49.3z"/>
			<path id="&lt;Path&gt;" class="s2" d="m35.2 233.9c0 0-18-14.1-9.4-35.9 0 0 12.5 21.6 9.4 35.9z"/>
			<path id="&lt;Path&gt;" class="s2" d="m53.8 189.4c0 0-19.9 16.1-13.4 42 0 0 5.9-5.3 10.1-17.5 4.2-12.2 3.3-24.5 3.3-24.5z"/>
			<path id="&lt;Path&gt;" class="s2" d="m32.6 202.7c0 0-10.2-14.3 2.2-30.3 0 0 7.7 14.1-2.2 30.3z"/>
			<path id="&lt;Path&gt;" class="s2" d="m37.1 207.9c0 0-4.2-17.3 17-37 0 0-0.8 11.3-6.9 20.6-7.3 11.2-10.1 16.4-10.1 16.4z"/>
			<path id="&lt;Path&gt;" class="s2" d="m41 180c0 0-4.5-13.1 15.8-23.7 0 0-4.4 19.3-15.8 23.7z"/>
			<path id="&lt;Path&gt;" class="s2" d="m39.3 171.2c0 0-7.5-4 1.6-18 0 0 3.6 8.7-1.6 18z"/>
			<path id="&lt;Path&gt;" class="s2" d="m54.5 145.9c-11.8 5.8-10.3 16.1-10.3 16.1 0 0 9.6-5.5 10.3-16.1z"/>
			<path id="&lt;Path&gt;" class="s2" d="m191 8.8q-4.7 2.5-9.6 4.7c-35.7 16.1-76.6 16.1-112.4 0q-0.7 2-1.4 4c-39.4 111-0.3 230.5 97.1 296.7 9.8 6.7 18.7 14.9 26.3 24.6 7.5-9.7 16.4-17.9 26.3-24.6 97.4-66.2 136.5-185.7 97.1-296.7q-0.7-2-1.5-4c-35.7 16.1-76.6 16.1-112.4 0q-4.9-2.2-9.5-4.7z"/>
			<path id="&lt;Path&gt;" class="s3" d="m71.1 18.4q0 0.2-0.1 0.3c-18.7 52.7-20.1 109.6-2.7 162.8 17.4 53.3 52.2 98.2 98.4 129.7 9.1 6.1 17.2 13.5 24.3 21.9 7-8.4 15.2-15.8 24.3-21.9 46.2-31.4 80.9-76.4 98.3-129.6 17.5-53.2 16.1-110.2-2.6-162.9q-0.1-0.2-0.2-0.3c-35.8 14.9-76.2 14.3-111.7-1.6q-4.1-1.8-8.1-3.9-4 2.1-8.1 3.9c-35.5 15.9-76 16.5-111.8 1.6z"/>
			<path id="&lt;Path&gt;" class="s4" d="m71.1 18.4q0 0.2-0.1 0.3c-18.7 52.7-20.1 109.6-2.7 162.8 17.4 53.3 52.2 98.2 98.4 129.7 9.1 6.1 17.2 13.5 24.3 21.9 7-8.4 15.2-15.8 24.3-21.9 46.2-31.4 80.9-76.4 98.3-129.6 17.5-53.2 16.1-110.2-2.6-162.9q-0.1-0.2-0.2-0.3c-35.8 14.9-76.2 14.3-111.7-1.6q-4.1-1.8-8.1-3.9-4 2.1-8.1 3.9c-35.5 15.9-76 16.5-111.8 1.6z"/>
			<path id="&lt;Path&gt;" class="s2" d="m77.6 31.9c-14.8 47.8-15 98.6 0.6 146.4 16.7 51 50.1 94.1 94.4 124.2 6.6 4.5 12.7 9.6 18.4 15.2 5.6-5.6 11.8-10.7 18.4-15.2 44.3-30.1 77.6-73.2 94.3-124.2 15.7-47.7 15.4-98.6 0.6-146.3-35.8 11.8-74.9 9.9-109.5-5.6q-1.9-0.9-3.8-1.8-1.9 0.9-3.8 1.8c-34.7 15.5-73.8 17.4-109.6 5.5z"/>
			<path id="&lt;Path&gt;" class="s5" d="m302.6 35.4c-35.9 11.1-74.6 8.8-108.9-6.6q-1.4-0.6-2.7-1.2-1.4 0.6-2.7 1.2c-34.3 15.4-73.1 17.7-108.9 6.6-13.9 46.5-13.7 95.8 1.4 142 16.5 50.5 49.5 93.1 93.3 122.9 6 4.1 11.6 8.6 16.9 13.6 5.2-5 10.9-9.5 16.9-13.6 43.8-29.8 76.7-72.4 93.2-122.8 15.2-46.3 15.3-95.6 1.5-142.1z"/>
			<path id="&lt;Path&gt;" class="s6" d="m97 139v8.5h88.3v151h9.9v-151h87.8v-8.5h-87.8v-87.9h-9.9v87.9z"/>
			<path id="&lt;Path&gt;" class="s7" d="m97 139v8.5h88.3v151h9.9v-151h87.8v-8.5h-87.8v-87.9h-9.9v87.9z"/>
			<path id="&lt;Path&gt;" class="s3" d="m98.4 137.3v8.4h88.3v151h9.9v-151h87.8v-8.4h-87.8v-88h-9.9v88z"/>
			<path id="&lt;Path&gt;" class="s8" d="m98.4 137.3v8.4h88.3v151h9.9v-151h87.8v-8.4h-87.8v-88h-9.9v88z"/>
			<path id="&lt;Path&gt;" class="s2" d="m192 177.5c-6.5-11.5-31.8-4.5-39.8-4.9q0.1 1.2 0.3 2.4c-2.6 0-4.5 0-7.1 0 0 22 0 46.9 0 68.9q21.3 0 42.7 0c0 1.2 2 1.9 3.9 1.9 2 0 4-0.7 4-1.9q21.3 0 42.7 0c0-22 0-46.9 0-68.9-2.6 0-4.6 0-7.2 0q0.2-1.2 0.4-2.4c-8 0.4-33.3-6.6-39.9 4.9z"/>
			<path id="&lt;Path&gt;" class="s9" d="m152.2 236.2c4.2 0.5 32.5-5.9 37.4 1.1-7.1-6.2-32.6 1.4-38.4 0.1 1.5-21.6 2.8-38.5 0.6-59.8 0.5 0 1 0 1.6 0 1.5 16.2 2.2 35.2-1.2 58.6z"/>
			<path id="&lt;Path&gt;" class="s10" d="m188.1 239.6v1.7h-1v-2q0.5 0.1 1 0.3z"/>
			<path id="&lt;Path&gt;" class="s10" d="m191 240.2c-9.2-8.2-33.3 2.9-43 0.1 1.8-27.5 1.6-48.3 0.8-61.6 0.5 0 1 0 1.4 0 2.1 18.2 1 41.1-1 60.7 8.1 1 35.3-7.8 41.8 0.8z"/>
			<path id="&lt;Path&gt;" class="s11" d="m190.9 179.8c-7.9-9.8-24.7-4.3-35.7-4.3 2.1 21.3 1.5 38.1-0.8 58.1 5.5 0.7 29.4-5.4 36.5 2.3z"/>
			<path id="&lt;Path&gt;" class="s9" d="m231.9 236.2c-4.2 0.5-32.5-5.9-37.5 1.1 7.2-6.2 32.7 1.4 38.5 0.1-1.5-21.6-2.8-38.5-0.6-59.8-0.6 0-1 0-1.6 0-1.5 16.2-2.2 35.2 1.2 58.6z"/>
			<path id="&lt;Path&gt;" class="s10" d="m196 239.6v1.7h1v-2q-0.5 0.1-1 0.3z"/>
			<path id="&lt;Path&gt;" class="s10" d="m193.1 240.2c9.2-8.2 33.3 2.9 43 0.1-1.8-27.5-1.6-48.3-0.8-61.6-0.6 0-1 0-1.4 0-2.1 18.2-1.1 41.1 1 60.7-8.1 1-35.3-7.8-41.8 0.8z"/>
			<path id="&lt;Path&gt;" class="s11" d="m193.1 179.8c8-9.8 24.8-4.3 35.8-4.3-2.1 21.3-1.6 38.1 0.7 58.1-5.4 0.7-29.4-5.4-36.5 2.3z"/>
			<path id="&lt;Path&gt;" class="s2" d="m187.8 183.7c-7.3-5.2-18.6-3-27.9-2.1q0 0.8 0.1 1.7c9.3-0.9 20.6-3.1 27.8 2.1z"/>
			<path id="&lt;Path&gt;" class="s2" d="m187.8 192.1c-7.1-5.2-18.2-3.1-27.4-2.2l0.1 1.7c9.2-0.9 20.2-3 27.3 2.2z"/>
			<path id="&lt;Path&gt;" class="s2" d="m187.8 200.4c-7-5.1-18-3.1-27.1-2.2v1.7c9.2-0.9 20.1-2.9 27.1 2.2z"/>
			<path id="&lt;Path&gt;" class="s2" d="m187.8 208.8c-7-5.1-18-3.1-27.1-2.2q0 0.9 0 1.7c9.1-0.9 20-2.9 27.1 2.2z"/>
			<path id="&lt;Path&gt;" class="s2" d="m187.8 217.2c-7.1-5.2-18.2-3.1-27.4-2.2l-0.1 1.7c9.2-0.9 20.4-3 27.5 2.1z"/>
			<path id="&lt;Path&gt;" class="s2" d="m187.8 225.5c-7.3-5.2-18.6-3-27.9-2.1l-0.2 1.7c9.3-0.8 20.8-3.2 28.1 2.1z"/>
			<path id="&lt;Path&gt;" class="s2" d="m196.3 183.7c7.2-5.2 18.6-3 27.9-2.1q-0.1 0.8-0.1 1.7c-9.3-0.9-20.6-3.1-27.8 2.1z"/>
			<path id="&lt;Path&gt;" class="s2" d="m196.3 192.1c7.1-5.2 18.2-3.1 27.3-2.2v1.7c-9.2-0.9-20.2-3-27.3 2.2z"/>
			<path id="&lt;Path&gt;" class="s2" d="m196.3 200.4c7-5.1 17.9-3.1 27.1-2.2l-0.1 1.7c-9.1-0.9-20-2.9-27 2.2z"/>
			<path id="&lt;Path&gt;" class="s2" d="m196.3 208.8c7-5.1 17.9-3.1 27.1-2.2q0 0.9 0 1.7c-9.1-0.9-20.1-2.9-27.1 2.2z"/>
			<path id="&lt;Path&gt;" class="s2" d="m196.3 217.2c7.1-5.2 18.2-3.1 27.3-2.2l0.1 1.7c-9.2-0.9-20.3-3-27.4 2.1z"/>
			<path id="&lt;Path&gt;" class="s2" d="m196.3 225.5c7.2-5.2 18.6-3 27.9-2.1l0.1 1.7c-9.3-0.8-20.7-3.2-28 2.1z"/>
			<path id="&lt;Path&gt;" class="s2" d="m44.5 306l1.1 1.5c157.8-46.3 292.9-0.7 294.4-0.2l0.7-2.6c-1.5-0.5-136.7-45.5-296.2 1.3z"/>
			<path id="&lt;Path&gt;" class="s12" d="m44.5 306l1.1 1.5c157.8-46.3 292.9-0.7 294.4-0.2l0.7-2.6c-1.5-0.5-136.7-45.5-296.2 1.3z"/>
			<path id="&lt;Path&gt;" class="s6" d="m340.5 311.8c2.8 1.6 2.3 1 5 1.7l5 0.7c4.3 0.4 6.1 1 9.1 1.9 3.5 1.1 5.4 2.4 9.6 5l0.3-2.9c-4.3-2.1-5.4-3.1-9.2-4.3-3.3-0.9-1.5-0.7-4.7-1.3-3.6-0.6-7.1-1-7.1-1-2.5-0.8-6.7-1.5-7.9-2.9z"/>
			<path id="&lt;Path&gt;" class="s13" d="m340.5 311.8c2.8 1.6 2.3 1 5 1.7l5 0.7c4.3 0.4 6.1 1 9.1 1.9 3.5 1.1 5.4 2.4 9.6 5l0.3-2.9c-4.3-2.1-5.4-3.1-9.2-4.3-3.3-0.9-1.5-0.7-4.7-1.3-3.6-0.6-7.1-1-7.1-1-2.5-0.8-6.7-1.5-7.9-2.9z"/>
			<path id="&lt;Path&gt;" class="s14" d="m354 266.7c0 0 0 6.7 28.4 6.8 0 0-1.5 11.9-18.2 19.4 0 0 9.3 11.9 6.4 26.2-3.7-1.7-7.9-3.9-11.8-5-3.3-0.9-5.4-1.7-11.3-2.5-3-0.4-3.7 0.7-5.6-1.7z"/>
			<g id="&lt;Clip Group&gt;" clip-path="url(#cp1)">
				<path id="&lt;Path&gt;" class="s15" d="m354 266.7c0 0 0 6.7 28.4 6.8 0 0-1.5 11.9-18.2 19.4 0 0 9.3 11.9 6.4 26.2-3.7-1.7-7.9-3.9-11.8-5-3.3-0.9-5.4-1.7-11.3-2.5-3-0.4-3.7 0.7-5.6-1.7z"/>
			</g>
			<path id="&lt;Path&gt;" class="s14" d="m29.8 267.2c0 0-0.1 7.1-28.5 6.8 0 0 1.3 11.9 17.9 19.6 0 0-9.4 11.8-6.8 26.2 3.8-1.7 7.9-3.9 12-4.9 3.2-0.9 5.3-1.6 11.2-2.3 3-0.4 5.4-0.5 7.4-2.9z"/>
			<g id="&lt;Clip Group&gt;" clip-path="url(#cp2)">
				<path id="&lt;Path&gt;" class="s15" d="m29.8 267.2c0 0-0.1 7.1-28.5 6.8 0 0 1.3 11.9 17.9 19.6 0 0-9.4 11.8-6.8 26.2 3.8-1.7 7.9-3.9 12-4.9 3.2-0.9 5.3-1.6 11.2-2.3 3-0.4 5.4-0.5 7.4-2.9z"/>
			</g>
			<path id="&lt;Path&gt;" class="s6" d="m42.6 312.8c-2.8 1.6-2.3 1-5 1.7l-5 0.6c-4.3 0.4-6.1 0.9-9.1 1.8-3.6 1-5.5 2.4-9.7 4.9l-0.2-3c4.2-1.9 5.4-3 9.2-4.1 3.3-0.9 1.5-0.7 4.7-1.2 3.6-0.6 7.2-1 7.2-1 2.5-0.7 6.6-1.4 7.8-2.8z"/>
			<path id="&lt;Path&gt;" class="s13" d="m42.6 312.8c-2.8 1.6-2.3 1-5 1.7l-5 0.6c-4.3 0.4-6.1 0.9-9.1 1.8-3.6 1-5.5 2.4-9.7 4.9l-0.2-3c4.2-1.9 5.4-3 9.2-4.1 3.3-0.9 1.5-0.7 4.7-1.2 3.6-0.6 7.2-1 7.2-1 2.5-0.7 6.6-1.4 7.8-2.8z"/>
			<path id="&lt;Path&gt;" class="s14" d="m29 262.3c0 0 133.5-46.9 326.4-1.4 0 0-3.9 17.5-13.1 45.3 0 0-135.7-47.3-299.8 0.3 0 0-4-6.7-13.5-44.2z"/>
			<path id="&lt;Path&gt;" class="s15" d="m29 262.3c0 0 133.5-46.9 326.4-1.4 0 0-3.9 17.5-13.1 45.3 0 0-135.7-47.3-299.8 0.3 0 0-4-6.7-13.5-44.2z"/>
			<path id="&lt;Path&gt;" class="s2" d="m50.9 272.8l-0.4 0.1-0.4-1.4q-1.5-0.8-3.2-0.6l5.6 19.3 1.8-0.5 0.1 0.4-5.9 1.7-0.1-0.4 1.8-0.5-5.6-19.3q-1.4 0.4-2.6 2.3l0.4 1.4-0.4 0.1-1-3.6 0.4-0.1 0.1 0.3 8-2.3-0.1-0.4 0.4-0.1z"/>
			<path id="&lt;Path&gt;" class="s2" d="m61 284l-0.4 0.1q-0.2-0.8-0.4-1.1-0.7-1.3-1.6-1.1-0.7 0.2-0.8 1.5 0 0.8 0.4 2.5l0.7 2.5 1.8-0.4 0.1 0.4-5.1 1.3-0.1-0.4 1.3-0.3-1.8-6.5-1.2 0.3-0.2-0.4 3.4-0.9 0.4 1.6q0.3-1.7 1.5-2.1 0.3 0 0.8 0l-0.2-0.9 0.3-0.1z"/>
			<path id="&lt;Compound Path&gt;" fill-rule="evenodd" class="s2" d="m70.4 284.8q-0.6 1.5-1.8 1.8-1.3 0.4-2-0.9-0.8 1.6-2.1 1.9-0.9 0.3-1.7-0.2-0.7-0.5-1-1.5-0.3-1.3 0.4-2.5 0.7-1.3 2.1-1.6 0.6-0.1 1.2 0l-0.4-2q-0.4 0-0.7 0.1-1.9 0.5-2.4 2.2h-0.2l-0.3-1.4q1.2-0.8 2.6-1.2 2.1-0.5 3 0.8 0.3 0.4 0.6 1.5l0.7 2.9q0.3 1.3 0.7 1.2 0.5-0.1 1-1.2zm-4.1 0.2l-0.7-2.9q-0.7-0.1-1.3 0.1-0.7 0.2-0.7 0.6-0.1 0.4 0.3 2.1 0.4 1.5 0.3 1.2 0.3 0.9 0.7 0.8 0.4-0.1 0.8-0.6 0.4-0.6 0.6-1.3z"/>
			<path id="&lt;Path&gt;" class="s2" d="m79.6 283.9l-3.3 0.7-1.4-5.9q-0.3-1.2-0.7-1.1-1.1 0.3-1.5 3l0.9 4.2 1.4-0.3 0.1 0.4-4.7 1.1-0.1-0.4 1.3-0.3-1.5-6.6-1.3 0.3-0.1-0.4 3.4-0.8 0.4 1.8q0.6-2.2 1.9-2.5 1-0.2 1.8 0.5 0.8 0.7 1.1 2.1l0.9 4.1 1.3-0.3z"/>
			<path id="&lt;Path&gt;" class="s2" d="m84.9 280.7q0.2 1-0.3 1.8-0.6 0.7-1.9 1-1 0.2-2.3-0.1l0.2 0.7-0.4 0.1-0.6-2.7 0.4-0.1 0.2 0.9q1.4 1 2.4 0.8 0.9-0.2 0.8-1.1-0.1-0.5-0.6-0.8-0.5-0.3-2-0.8-1.7-0.7-2-2-0.2-1 0.4-1.7 0.6-0.8 1.7-1 1.1-0.2 1.9 0l-0.1-0.8 0.3-0.1 0.7 2.9-0.4 0.1-0.2-0.7q-1.1-1.3-2.1-1.1-0.8 0.2-0.6 1.1 0.1 0.5 0.5 0.8 0.4 0.2 1.6 0.7 2.2 0.7 2.4 2.1z"/>
			<path id="&lt;Path&gt;" class="s2" d="m87.4 262.4l-0.4 0.1q-0.7-1.1-1.3-1-0.3 0.1-0.2 0.5 0 0.4 0.2 1.8l2.1 10.7 1.8-0.3 0.2 1.1-0.3 0.1q-0.5-0.7-1.6-0.5l2 10.6-2 0.4-2.1-10.6-1.5 0.3v-0.4l1.5-0.3-1.9-9.5q-0.4-2.2 0-3.1 0.4-0.9 1.8-1.2 0.7-0.1 1.5-0.1z"/>
			<path id="&lt;Compound Path&gt;" fill-rule="evenodd" class="s2" d="m98.2 276.5q0.3 1.8-0.5 3-0.9 1.3-2.6 1.6-1.7 0.3-2.9-0.6-1.2-0.8-1.5-2.6-0.3-1.8 0.5-3.1 0.9-1.3 2.5-1.6 1.7-0.3 2.9 0.7 1.3 0.9 1.6 2.6zm-2.2 1.2q-0.6-3.2-1-3.7-0.4-0.5-1.3-0.4-0.8 0.2-1 1-0.2 0.7 0.2 2.7 0.3 1.9 0.5 2.3 0.5 1.3 1.5 1.1 0.9-0.2 1.2-0.8 0.2-0.6-0.1-2.2z"/>
			<path id="&lt;Path&gt;" class="s2" d="m105.2 274.9l-0.4 0.1q-0.1-0.8-0.3-1.2-0.6-1.3-1.4-1.2-0.8 0.1-1 1.5-0.1 0.7 0.1 2.5l0.5 2.6 1.8-0.3v0.4l-5.2 0.8v-0.4l1.3-0.2-1.1-6.6-1.3 0.2-0.1-0.4 3.4-0.6 0.3 1.6q0.5-1.7 1.7-1.9 0.3-0.1 0.8 0l-0.2-0.8 0.4-0.1z"/>
			<path id="&lt;Path&gt;" class="s2" d="m119.7 277.1l-3.4 0.5-0.9-6.3q-0.1-0.9-0.5-0.9-0.4 0.1-0.9 0.9-0.5 0.9-0.8 2.1l0.6 4.1 1.3-0.2 0.1 0.4-3.4 0.5-0.9-6.3q-0.1-0.9-0.4-0.9-0.5 0.1-1.2 1.2-0.5 0.8-0.6 1.9l0.6 4 1.3-0.2 0.1 0.5-4.8 0.6v-0.4l1.3-0.2-0.9-6.6-1.4 0.2v-0.5l3.4-0.5 0.2 1.9q0.9-2.2 2.2-2.4 1.7-0.2 2.4 1.9 0.7-2.3 2.2-2.5 0.9-0.2 1.6 0.5 0.6 0.6 0.8 1.9l0.6 4.6 1.4-0.2z"/>
			<path id="&lt;Compound Path&gt;" class="s2" d="m121.2 262.4q-0.4 2.1-0.1 5.2l0.1 0.6h-0.4l-0.1-0.5q-0.3-3.1-1.2-5.1zm3.2 14.2l-4.7 0.6-0.1-0.5 1.3-0.1-0.8-6.7-1.3 0.2v-0.5l3.9-0.4 0.1 0.4h-0.6l0.8 6.7 1.4-0.1z"/>
			<path id="&lt;Path&gt;" class="s2" d="m134 275.5l-3.5 0.4-0.6-6.1q-0.1-1.1-0.6-1.1-1.1 0.1-1.8 2.8l0.4 4.2 1.4-0.1v0.4l-4.7 0.5-0.1-0.4 1.3-0.1-0.7-6.7-1.3 0.1-0.1-0.4 3.5-0.4 0.1 1.8q0.9-2.1 2.3-2.2 1-0.1 1.7 0.7 0.7 0.8 0.9 2.2l0.4 4.1 1.3-0.1z"/>
			<path id="&lt;Compound Path&gt;" fill-rule="evenodd" class="s2" d="m142.5 267.6l-1.3 0.1 0.6 6.4q0.1 0.6 0.4 0.7-0.4 3.8-3.9 4.1-0.7 0.1-2.1-0.1-0.8-0.1-1.3-0.1l-0.1-1.7h0.1q1.4 1.7 3.7 1.5 1-0.1 1.2-0.7 0.1-0.3 0-1.8l-0.2-1.8q-0.9 0.9-2.1 1-1.4 0.1-2.4-0.9-1-0.9-1.1-2.6-0.2-1.7 0.6-2.9 0.8-1.2 2.2-1.3 1.3-0.2 2.3 0.8l-0.1-0.8 3.4-0.3zm-2.9 5.9l-0.4-4.2q-0.7-1.6-2.2-1.4-0.7 0-0.8 1.2 0 0.4 0.1 1.8 0.2 2.9 0.4 3.4 0.2 0.5 0.9 0.5 1.3-0.2 2-1.3z"/>
			<path id="&lt;Path&gt;" class="s2" d="m157.1 274.5h-0.4v-0.7l-9.2 0.6-0.1-0.5 1.7-0.1-1.3-20.1-1.7 0.1v-0.4l6.2-0.4v0.4l-2 0.2 1.3 20.1 0.5-0.1q2.2-0.1 4.5-1.6l-0.1-1h0.4z"/>
			<path id="&lt;Compound Path&gt;" class="s2" d="m159.9 259.1q-0.5 2.1-0.4 5.2l0.1 0.6h-0.4l-0.1-0.5q-0.1-3.2-0.9-5.2zm2.3 14.4l-4.8 0.2v-0.4l1.3-0.1-0.3-6.7-1.4 0.1v-0.4l4-0.2v0.4h-0.5l0.3 6.7 1.4-0.1z"/>
			<path id="&lt;Path&gt;" class="s2" d="m170.4 266h-1.1q-0.8 1.6-2 5l-0.9 2.7-3.7-7.4h-1.1v-0.4l4.4-0.2v0.5h-1l2.1 4.2q0.9-2.3 0.9-4.3h-0.9v-0.4l3.3-0.1z"/>
			<path id="&lt;Compound Path&gt;" fill-rule="evenodd" class="s2" d="m177.9 271.7q-1.6 1.5-3.4 1.6-1.6 0-2.7-1.1-1.1-1.1-1.1-2.8-0.1-1.7 1-2.9 1-1.2 2.6-1.2 1.5-0.1 2.3 0.8 0.9 0.9 1 2.6l-4.6 0.1q0 0.5 0 1.2 0 1.7 0.3 2.3 0.3 0.6 1.2 0.5 1.9 0 3.1-2l0.3-0.1zm-1.6-3.7q-0.1-2.3-1.8-2.3-0.8 0.1-1.2 0.5-0.3 0.5-0.4 1.7v0.5l3.3-0.1q0.1-0.2 0.1-0.3z"/>
			<path id="&lt;Path&gt;" class="s2" d="m183.9 270.8q0 1-0.7 1.7-0.7 0.6-2 0.6-1.1 0-2.2-0.5v0.7h-0.4l-0.1-2.7h0.5v0.9q1.2 1.2 2.2 1.2 0.9 0 0.9-0.9 0-0.5-0.4-0.9-0.4-0.4-1.8-1.2-1.6-1-1.6-2.3 0-1 0.7-1.6 0.7-0.7 1.9-0.7 1.1 0 1.9 0.4v-0.8h0.3l0.1 3h-0.4v-0.8q-0.9-1.4-1.8-1.4-0.9 0-0.9 0.9 0 0.5 0.4 0.9 0.3 0.3 1.4 0.9 2 1.2 2 2.6z"/>
			<path id="&lt;Path&gt;" class="s2" d="m193.8 253.3h-0.4q-0.5-1.2-1.2-1.2-0.2 0-0.3 0.4 0 0.4 0 1.8v11h1.7v1.2h-0.3q-0.3-0.8-1.4-0.8l-0.1 10.7h-2.1l0.1-10.7h-1.6v-0.4h1.6v-9.7q0-2.2 0.5-3.1 0.6-0.8 2-0.8 0.8 0 1.5 0.2z"/>
			<path id="&lt;Compound Path&gt;" fill-rule="evenodd" class="s2" d="m201.7 269.2q-0.1 1.8-1.1 2.9-1.1 1-2.8 1-1.7 0-2.8-1.1-1-1.1-1-2.9 0.1-1.8 1.1-2.9 1.1-1.1 2.8-1.1 1.7 0 2.7 1.2 1.1 1.2 1.1 2.9zm-2.4 0.7q0.1-3.2-0.2-3.8-0.3-0.5-1.3-0.6-0.8 0-1.1 0.7-0.3 0.7-0.4 2.8 0 1.9 0.1 2.3 0.2 1.4 1.3 1.4 0.9 0 1.2-0.6 0.4-0.6 0.4-2.2z"/>
			<path id="&lt;Path&gt;" class="s2" d="m208.8 268.9h-0.4q0.1-0.8 0-1.1-0.3-1.5-1.2-1.5-0.8 0-1.3 1.2-0.2 0.7-0.3 2.5l-0.1 2.6 1.9 0.1v0.4l-5.3-0.1v-0.5l1.3 0.1 0.3-6.7-1.4-0.1v-0.4l3.5 0.1-0.1 1.6q0.9-1.6 2-1.5 0.3 0 0.9 0.2v-0.9h0.4z"/>
			<path id="&lt;Path&gt;" class="s2" d="m218.2 272.6q-1 1.1-2.2 1-1.2 0-1.6-0.7-0.3-0.5-0.3-1.9l0.3-4.8-1.4-0.1v-0.4l1.4 0.1 0.3-7.8 2.1 0.1-0.3 7.8 2 0.1v1.5h-0.4q-0.4-1.2-1.6-1.2l-0.3 4.9q0 1.3 0 1.1 0 0.8 0.4 0.9 0.6 0 1.4-0.9z"/>
			<path id="&lt;Path&gt;" class="s2" d="m227.6 274l-3.4-0.2 0.3-5.7q0-1.1 0-1.3 0-0.2-0.3-0.2-1.1-0.1-2.4 2.7l-0.2 4h1.3l-0.1 0.5-4.7-0.3 0.1-0.4 1.3 0.1 1.1-19.9-1.3-0.1v-0.4l3.4 0.2-0.8 15.3q1.3-2.3 2.7-2.2 0.9 0 1.5 0.8 0.5 0.7 0.4 2.2l-0.2 4.4 1.3 0.1z"/>
			<path id="&lt;Compound Path&gt;" fill-rule="evenodd" class="s2" d="m235.1 273.3q-1.7 1.4-3.5 1.2-1.6-0.1-2.6-1.3-1-1.1-0.9-2.8 0.2-1.7 1.3-2.8 1.2-1.2 2.8-1 1.4 0.1 2.2 1.1 0.8 0.9 0.7 2.6l-4.6-0.3q0 0.4-0.1 1.2-0.1 1.7 0.1 2.3 0.3 0.5 1.2 0.6 1.8 0.1 3.3-1.7h0.2zm-1.2-4q0.1-2.2-1.6-2.4-0.8 0-1.2 0.4-0.4 0.5-0.6 1.7v0.5l3.3 0.2q0-0.2 0.1-0.4z"/>
			<path id="&lt;Path&gt;" class="s2" d="m254.1 269.1l-1.7-0.2-0.7 6.8 1.3 0.1v0.4l-1.3-0.1q-0.7-0.1-3.2-0.2-0.8 0-1.4-0.1-3.3-0.3-5.2-3.4-1.9-3.2-1.4-7.7 0.4-5 3-7.8 2.6-2.7 6.4-2.4 2 0.2 4 1.3l0.1-1.2 0.3 0.1-0.4 4.9h-0.4l0.1-0.6q0.1-1.1-1.3-2.5-1.3-1.4-3.2-1.6-1.2-0.1-2.3 0.3-1.1 0.4-1.6 1.1-1.2 1.8-1.9 8.5-0.7 7.1 0.1 8.4 0.9 1.9 4.3 2.2 0.7 0.1 1.6 0l0.6-6.7-2.5-0.3v-0.4l6.7 0.7z"/>
			<path id="&lt;Path&gt;" class="s2" d="m258.4 276.9l-4.7-0.6v-0.4l1.3 0.1 2.3-19.8-1.3-0.1v-0.4l3.4 0.4-2.3 20.2 1.4 0.1z"/>
			<path id="&lt;Compound Path&gt;" fill-rule="evenodd" class="s2" d="m267 274.1q-0.2 1.8-1.4 2.8-1.2 0.9-2.9 0.7-1.7-0.2-2.6-1.4-0.9-1.2-0.7-3 0.2-1.8 1.4-2.8 1.2-1 2.9-0.7 1.7 0.2 2.6 1.4 0.9 1.3 0.7 3zm-2.4 0.5q0.4-3.2 0.1-3.8-0.2-0.6-1.1-0.7-0.9-0.1-1.3 0.5-0.3 0.7-0.6 2.7-0.2 2-0.2 2.4 0.1 1.3 1.1 1.5 1 0.1 1.4-0.5 0.4-0.5 0.6-2.1z"/>
			<path id="&lt;Path&gt;" class="s2" d="m274.2 274.7l-0.4-0.1q0.1-0.8 0-1.2-0.1-1.4-1-1.6-0.8-0.1-1.4 1.2-0.3 0.6-0.5 2.4l-0.4 2.6 1.8 0.3-0.1 0.4-5.2-0.8 0.1-0.4 1.3 0.2 0.9-6.7-1.3-0.1 0.1-0.5 3.4 0.5-0.2 1.6q1-1.5 2.1-1.3 0.3 0 0.8 0.3l0.1-0.9 0.4 0.1z"/>
			<path id="&lt;Path&gt;" class="s2" d="m281.9 281.3q-1.9 2.6-4.5 2.2-1.5-0.2-2.4-1.4l0.8-0.9 0.1 0.2q0.1 0.5 0.7 1.1 0.6 0.6 1.2 0.7 0.8 0.1 1.2-0.6 0.3-0.4 0.6-2l0.3-2.1q-1.3 1.2-2.7 1-1.4-0.2-1.7-1.2-0.3-0.6 0-2.3l0.6-4-1.3-0.2 0.1-0.4 3.4 0.5-0.9 5.3q-0.2 1.2-0.1 1.5 0.1 0.3 0.5 0.4 1.1 0.2 2.2-1.5l0.8-4.9-1.3-0.2v-0.4l3.5 0.5-1 5.9q-0.3 2.2-0.1 2.8z"/>
			<path id="&lt;Compound Path&gt;" fill-rule="evenodd" class="s2" d="m295.3 278.7q-0.3 1.8-1.5 2.6-1.2 0.9-2.9 0.6-1.8-0.3-2.6-1.5-0.8-1.3-0.5-3 0.3-1.8 1.6-2.7 1.2-1 2.9-0.6 1.6 0.2 2.5 1.6 0.8 1.3 0.5 3zm-2.4 0.3q0.6-3.1 0.4-3.8-0.2-0.6-1.2-0.7-0.8-0.2-1.2 0.4-0.4 0.7-0.8 2.7-0.4 1.9-0.4 2.3 0 1.4 1.1 1.6 0.9 0.1 1.4-0.4 0.4-0.5 0.7-2.1z"/>
			<path id="&lt;Path&gt;" class="s2" d="m304.3 264.4l-0.4-0.1q-0.2-1.3-0.8-1.4-0.3 0-0.4 0.3-0.2 0.4-0.4 1.8l-2.1 10.8 1.7 0.3-0.2 1.2-0.3-0.1q-0.2-0.8-1.3-1l-2.1 10.5-2-0.4 2-10.5-1.5-0.3 0.1-0.4 1.5 0.3 1.9-9.6q0.4-2.1 1.1-2.8 0.7-0.7 2.1-0.5 0.8 0.2 1.4 0.5z"/>
			<path id="&lt;Path&gt;" class="s2" d="m320 280.4l-1.7-0.3-1.5 6.6 1.2 0.2-0.1 0.5-1.2-0.3q-0.7-0.2-3.2-0.6-0.8-0.1-1.4-0.2-3.2-0.8-4.7-4.1-1.4-3.4-0.4-7.8 1.1-4.9 4-7.3 2.9-2.5 6.6-1.6 2 0.4 3.8 1.8l0.3-1.2 0.3 0.1-1 4.8h-0.4l0.1-0.7q0.2-1-0.9-2.6-1.2-1.6-3-2-1.1-0.2-2.3 0-1.1 0.3-1.8 1-1.4 1.5-2.9 8.2-1.6 6.9-1 8.3 0.7 2 4 2.7 0.7 0.2 1.6 0.2l1.5-6.6-2.5-0.6 0.1-0.4 6.6 1.5z"/>
			<path id="&lt;Compound Path&gt;" fill-rule="evenodd" class="s2" d="m327.3 285.8q-0.5 1.8-1.8 2.6-1.2 0.8-2.9 0.4-1.7-0.5-2.5-1.7-0.7-1.3-0.2-3.1 0.4-1.7 1.7-2.6 1.3-0.8 3-0.4 1.6 0.4 2.3 1.8 0.8 1.4 0.4 3zm-2.5 0.2q0.8-3.1 0.6-3.7-0.1-0.6-1-0.9-0.9-0.2-1.3 0.4-0.5 0.6-1 2.6-0.5 1.9-0.5 2.3-0.1 1.4 0.9 1.6 1 0.3 1.4-0.2 0.5-0.5 0.9-2.1z"/>
			<path id="&lt;Compound Path&gt;" fill-rule="evenodd" class="s2" d="m335.7 292.1l-3.3-0.9 0.3-0.9q-1.3 0.8-2.6 0.5-1.2-0.4-1.8-1.7-0.5-1.4-0.1-3.1 0.5-1.5 1.7-2.4 1.2-0.9 2.5-0.5 1.1 0.3 1.8 1.6l3.6-13.2-1.3-0.3 0.1-0.4 3.3 0.9-5.3 19.6 1.2 0.4zm-2.9-2.4l1.2-4.3q-0.4-1.5-1.6-1.9-0.8-0.2-1.4 1.1 0 0.2-0.6 2.1-0.6 2.3-0.6 2.9 0 0.6 0.7 0.8 0.9 0.3 2.3-0.7z"/>
			<path id="&lt;Path&gt;" class="s16" d="m167.6 77.4h-1.7c-2.1-12.7-9.5-21.8-23-21.8-20.6 0-32.2 16.9-32.2 36.2 0 22.2 17 37.5 33.3 37.5 14.7 0 20.6-10.7 25.6-22.9l1.6 0.7c-1.4 6.9-3.5 13.6-6.2 20.1-7.2 3.5-14.9 4.8-22.9 4.8-23.5 0-44.4-13.4-44.4-38.8 0-20 15.6-40.3 45.3-40.3 8.5 0 17.2 1.7 24.6 6.1z"/>
			<path id="&lt;Path&gt;" class="s11" d="m171.4 74.7h-1.7c-2.2-12.7-9.6-21.8-23.1-21.8-20.5 0-32.1 16.8-32.1 36.2 0 22.1 17 37.5 33.3 37.5 14.7 0 20.5-10.8 25.6-22.9l1.5 0.7c-1.3 6.8-3.4 13.5-6.1 20.1-7.2 3.4-15 4.8-23 4.8-23.4 0-44.3-13.5-44.3-38.9 0-20 15.6-40.2 45.2-40.2 8.6 0 17.2 1.7 24.7 6.1z"/>
			<path id="&lt;Path&gt;" class="s17" d="m171.4 74.7h-1.7c-2.2-12.7-9.6-21.8-23.1-21.8-20.5 0-32.1 16.8-32.1 36.2 0 22.1 17 37.5 33.3 37.5 14.7 0 20.5-10.8 25.6-22.9l1.5 0.7c-1.3 6.8-3.4 13.5-6.1 20.1-7.2 3.4-15 4.8-23 4.8-23.4 0-44.3-13.5-44.3-38.9 0-20 15.6-40.2 45.2-40.2 8.6 0 17.2 1.7 24.7 6.1z"/>
			<path id="&lt;Compound Path&gt;" fill-rule="evenodd" class="s16" d="m225.1 98.3c-1.9 5.7-6.9 17.6-6.9 23 0 7 7.9 7 13 7.8v2.7h-31.3v-2.7c10.2-2.7 11.2-5 14.7-13.9l12.9-33.7 6.9-18.6c1-2.9 2.5-5.7 1.2-7.9 3.1-1.2 6-3.3 8.4-6.1l25.1 66.9c3.1 8.3 5 11.6 14.1 13.3v2.7h-33.5v-2.7c4-0.9 8.8-2.2 8.8-7.3 0 0.2-5.7-19.2-7.3-23.5zm12.1-34.4l-10.2 29.1 22.1 0.6z"/>
			<path id="&lt;Compound Path&gt;" fill-rule="evenodd" class="s11" d="m228.1 96.6c-1.9 5.7-6.9 17.6-6.9 23 0 7 7.9 7 13 7.8v1.7h-31.3v-1.7c10.2-2.7 11.2-5 14.8-13.9l12.8-33.7 6.9-18.6c1-3 2.5-5.7 1.2-7.9 3.1-1.2 6-3.3 8.4-6.1l25.1 66.8c3.1 8.4 5 11.7 14.1 13.4v1.7h-33.5v-1.7c4-0.9 8.8-2.2 8.8-7.3 0-4.8-4.4-15.5-7.3-23.5zm12.6-34.9l-10.7 29.6h22.6z"/>
			<path id="&lt;Compound Path&gt;" fill-rule="evenodd" class="s17" d="m228.1 96.6c-1.9 5.7-6.9 17.6-6.9 23 0 7 7.9 7 13 7.8v1.7h-31.3v-1.7c10.2-2.7 11.2-5 14.8-13.9l12.8-33.7 6.9-18.6c1-3 2.5-5.7 1.2-7.9 3.1-1.2 6-3.3 8.4-6.1l25.1 66.8c3.1 8.4 5 11.7 14.1 13.4v1.7h-33.5v-1.7c4-0.9 8.8-2.2 8.8-7.3 0-4.8-4.4-15.5-7.3-23.5zm12.6-34.9l-10.7 29.6h22.6z"/>
		</g>
	</g>
</svg>