<svg version="1.2" xmlns="http://www.w3.org/2000/svg" viewBox="0 0 3040 1500" width="3040" height="1500">
	<title>trash-scouts-svg-svg</title>
	<style>
		.s0 { opacity: .3;fill: #ffffff } 
		.s1 { opacity: .8;fill: #ffffff } 
		.s2 { fill: #ffffff } 
	</style>
	<filter id="f0">
		<feFlood flood-color="#000000" flood-opacity="1" />
		<feBlend mode="normal" in2="SourceGraphic"/>
		<feComposite in2="SourceAlpha" operator="in" />
	</filter>
	<g id="trash-white" filter="url(#f0)">
		<path id="Path 0" class="s0" d="m2378.5 313.7c-2.8 0.2-18.3 1.8-34.6 3.5l-29.6 3.3c4 5.1 5.5 6.6 6 6.5 0.4 0 0.7-0.4 0.7-1 0-0.5 1.8-1 4-1 2.2 0 12.4-0.9 22.8-2 10.3-1.1 20.5-2.2 22.7-2.4 2.2-0.3 5.3-0.7 7-1.1 1.7-0.3 3.8-1.4 4.8-2.3 1.1-0.9 1.7-2.1 1.5-2.7-0.1-0.5-2.5-0.9-5.3-0.8z"/>
		<path id="Path 1" class="s1" d="m2766.5 1038.7c2.8 0.2 6.8 0.2 9 0 2.2-0.2-0.1-0.3-5-0.3-4.9 0-6.8 0.1-4 0.3zm-2475.1 74.8c0 11.5 0.2 16 0.3 10 0.2-6 0.2-15.5 0-21-0.1-5.5-0.3-0.5-0.3 11zm48 4.5c0 5.2 0.1 7.2 0.3 4.5 0.2-2.8 0.2-7 0-9.5-0.2-2.5-0.3-0.2-0.3 5zm1903.9 12.5c0 4.4 0.2 6 0.4 3.5 0.2-2.5 0.2-6.1 0-8-0.2-1.9-0.4 0.1-0.4 4.5zm431.2 43.2c12.7 0.2 33.6 0.2 46.5 0 12.9-0.1 2.6-0.2-23-0.2-25.6 0-36.2 0.1-23.5 0.2zm39.5 50c3 0.2 7.5 0.2 10 0 2.5-0.2 0-0.3-5.5-0.3-5.5 0-7.5 0.1-4.5 0.3z"/>
		<path id="Path 2" class="s2" d="m2381 297.6c-5.8 0.7-12.3 1.6-14.5 1.9-2.2 0.2-5.6 0.7-7.5 0.9-1.9 0.2-6.7 0.6-10.5 0.9-3.8 0.3-9.3 0.9-12 1.3-2.8 0.3-5.9 0.8-7 1.1-1.1 0.3-2.7 0.5-3.5 0.5-0.8 0-7.1 0.6-14 1.4-6.9 0.8-15.2 1.7-18.5 1.9-3.3 0.3-7.6 0.7-9.5 1-1.9 0.3-5.1 0.8-7 1-1.9 0.2-7.1 0.7-11.5 1.1-4.4 0.3-8.4 0.9-9 1.2-0.6 0.2-4.4 0.7-8.5 0.9-4.1 0.2-16.5 1.5-27.5 2.8-11 1.3-21.8 2.6-24 2.9-2.2 0.3-5.1 0.5-6.5 0.6-1.4 0-5.7 0.4-9.5 0.9-3.8 0.6-9.5 1.3-12.5 1.6-3 0.3-7.3 0.7-9.5 1-2.2 0.3-5.6 0.8-7.5 1-1.9 0.2-6.4 0.7-10 1.1-3.6 0.4-6.6 1.1-6.8 1.5-0.1 0.5-1.2 0.6-2.5 0.2-1.2-0.3-9.1 0.3-17.5 1.3-8.4 1-15.2 2.1-15.2 2.4 0 0.3-1.9 0.4-4.2 0.4-2.4-0.1-10.1 0.5-17.3 1.3-7.2 0.8-13.7 1.6-14.5 1.9-0.8 0.3-5.3 0.8-10 1.1-4.7 0.2-9.2 0.9-10 1.3-0.8 0.5-1.7 0.7-2 0.5-0.3-0.3-3.4-0.1-7 0.5-3.9 0.6-8 2-10.3 3.5-2.6 1.8-3.7 3.2-3.7 5 0 1.6 1 3.2 2.8 4.5 2.2 1.6 3.9 1.9 9.2 1.5 3.6-0.3 8.4-0.7 10.8-1 2.3-0.3 6.1-0.7 8.5-1 2.3-0.2 9.4-0.9 15.7-1.6 6.3-0.6 11.7-1.3 12-1.4 0.3-0.2 3.9-0.6 8-1 4.1-0.3 9.1-0.8 11-1.1 1.9-0.2 5.8-0.7 8.5-1 2.8-0.2 9.1-0.9 14-1.4 4.9-0.5 17.8-1.8 28.5-2.9 10.7-1.1 23.8-2.5 29-3.1 5.2-0.5 10.6-1.2 12-1.5 1.4-0.2 9.5-1.2 18-2 8.5-0.9 18.2-1.8 21.5-2.1 3.3-0.4 6.2-0.8 6.5-0.9 0.3-0.2 4.3-0.6 9-1 4.7-0.3 11.9-1.1 16-1.6 4.1-0.5 13.8-1.6 21.5-2.5 7.7-0.8 16.9-1.8 20.5-2.3 3.6-0.5 22.3-2.7 41.5-4.9 20.4-2.4 37.5-3.9 41-3.6 3.3 0.3 8.4-0.1 11.4-0.8 3.4-0.8 5.8-2 6.5-3.3 0.6-1.1 1.4-2.2 1.9-2.5 0.4-0.3 0.6-2.2 0.5-4.4-0.2-3-0.9-4.1-3-5.2-1.6-0.8-4.7-1.3-7-1.3-2.4 0.1-9 0.7-14.8 1.5zm-11.5 23.1c-2.2 0.2-12.2 1.3-22.2 2.3-10.1 1.1-20.1 2-22.3 2-2.4 0-4.1 0.5-4.3 1.2-0.2 0.7 0.8 3.3 2.1 5.8 1.3 2.5 2.7 4.7 3.1 5 0.3 0.3 0.8 1.4 0.9 2.5 0.2 1.1 5.5 12.3 11.7 25 6.2 12.6 19.9 40.5 30.5 62 10.5 21.4 19.6 39.1 20.1 39.2 0.5 0.2 0.9 1.3 0.9 2.5 0 1.3 3.9 9.9 8.6 19.3 4.7 9.3 8.9 17.2 9.2 17.5 0.4 0.3 0.8 1.2 1 2 0.2 0.8 1.3 3.7 2.6 6.5 1.3 2.7 3.5 5.8 4.9 6.7 1.5 1 3.5 1.8 4.5 1.8 0.9 0 9.8-3.9 19.7-8.6 9.9-4.8 18.1-9 18.3-9.5 0.1-0.5 1.1-0.9 2.2-0.9 1.2 0 2.8-1.3 4-3.3 1.1-1.7 2-4.1 2-5.2 0-1.1-1.2-4.3-2.7-7-1.5-2.8-3.1-5.2-3.5-5.5-0.5-0.3-1-1.4-1.2-2.5-0.3-1.1-0.5-2-0.6-2-0.1 0-0.3-0.7-0.4-1.5-0.2-0.8-2.6-6.3-5.5-12.3-2.8-5.9-5.5-10.7-6.1-10.7-0.6 0-0.9-0.3-0.8-0.8 0.1-0.4-0.1-1.7-0.5-3-0.4-1.2-1.1-2.2-1.7-2.2-0.6 0-0.8-0.5-0.5-1 0.3-0.6 0.1-1.2-0.5-1.5-0.6-0.3-0.7-1.1-0.3-1.8 0.3-0.6-0.1-1.7-1-2.2-0.9-0.6-1.8-1.9-2-3-0.2-1.1-1.8-4.6-3.6-7.8-1.7-3.1-3.1-6.4-3.1-7.2 0-0.8-0.5-1.5-1.2-1.5-0.6 0-0.8-0.2-0.5-0.5 0.4-0.3-3.2-8.5-7.9-18.3-4.7-9.7-9.1-18-9.8-18.4-0.6-0.4-0.7-0.8-0.1-0.8 0.6 0 0.5-0.5-0.2-1.2-0.6-0.7-1-1.9-0.7-2.6 0.2-0.6-0.3-1.4-1.1-1.7-0.8-0.3-1.5-1.3-1.5-2.3 0-0.9-0.8-3.1-1.8-4.7-1-1.7-2.5-4.8-3.4-7-0.9-2.2-3.7-8.5-6.3-14-2.6-5.5-5.6-12-6.8-14.5-1.1-2.5-2.5-4.7-3-5-0.5-0.3-0.8-0.8-0.8-1.3 0.1-0.4 0.1-1.2 0.1-1.7 0-0.6-1.3-2.2-2.9-3.8-2.2-2.1-3.9-2.7-7.2-2.7-2.4-0.1-6.2 0.1-8.4 0.2zm-16.5 718.1c-2.9 1.5-6.5 4.2-7.9 5.9-1.5 1.8-2.6 3.6-2.6 4-0.1 0.5-0.7 1.9-1.5 3.3-1.2 2.1-1.5 9.8-1.7 45.3-0.2 23.5-0.5 43.3-0.8 44-0.3 0.6-0.7 2.8-0.9 4.7-0.3 1.9-0.5 3.6-0.5 3.8-0.1 0.1-0.2 0.5-0.4 1-0.2 0.4-1.4 3-2.7 5.7-1.4 2.8-4.4 6.9-6.7 9.3-2.4 2.3-6.4 5.1-9 6.3-2.7 1.1-8 2.8-11.8 3.7-4.6 1.1-10.3 1.7-16.5 1.6-5.2-0.1-12.7-0.9-16.5-1.7-3.8-0.8-9-2.5-11.5-3.7-2.5-1.2-6.2-3.9-8.3-5.9-2.1-2-4.6-4.9-5.5-6.6-0.9-1.7-1.7-3.5-1.8-4-0.1-0.5-0.8-3.2-1.4-6-0.7-2.7-1.4-10.8-1.6-18-0.1-7.2-0.3-13.2-0.4-13.5 0-0.3 0-14.9 0-32.5 0.1-31.7 0-32-2.3-36.5-1.7-3.2-3.7-5.3-7.3-7.2-4.5-2.5-5.8-2.8-15.9-2.8-8.4 0-11.9 0.5-15 1.8-2.2 1-4.9 3.1-6.1 4.8-1.1 1.6-2.5 4.2-3.1 5.9-0.6 1.7-1.3 3.9-1.4 5-0.1 1.1-0.3 25.8-0.3 55 0 44.2 0.2 53.4 1.4 55.5 0.8 1.4 1.5 3 1.6 3.5 0 0.5 0.2 1.2 0.3 1.5 0.1 0.3 0.4 1.5 0.7 2.8 0.2 1.2 1.4 4.1 2.5 6.5 1.2 2.3 2.7 4.5 3.3 4.9 0.6 0.4 0.8 0.8 0.4 0.8-0.5 0 0.9 2.6 3.1 5.8 2.1 3.1 5.9 7.6 8.5 10 2.5 2.3 6.7 5.5 9.4 7.1 2.6 1.6 5 3 5.5 3 0.4 0.1 1.4 0.8 2.2 1.6 0.8 0.8 2.2 1.5 3 1.5 0.8 0 1.8 0.2 2.3 0.3 0.4 0.2 2.5 1.2 4.7 2.2 2.2 1 5.1 1.8 6.5 1.9 1.4 0.1 3.1 0.5 3.8 0.9 0.6 0.4 1.5 0.5 2 0.2 0.4-0.3 1.3 0 2 0.5 0.6 0.6 1.9 0.8 2.7 0.5 0.8-0.3 1.7-0.2 1.9 0.3 0.2 0.4 3.9 1.3 8.2 2 4.4 0.8 15.1 1.4 23.9 1.5 8.8 0.1 20.4-0.2 25.8-0.6 5.9-0.4 10.2-1.2 11-2 0.6-0.8 2.1-1.2 3.2-0.9 1.1 0.2 4.3-0.6 7-1.9 2.8-1.2 5.2-2.3 5.5-2.3 0.3-0.1 2-0.8 3.8-1.6 1.8-0.8 3.3-1.8 3.2-2.2 0-0.5 0.4-0.6 1-0.3 0.6 0.3 1.4-0.3 2-1.2 0.5-1 1-1.5 1-1 0 0.4 2.1-0.8 4.6-2.5 2.5-1.8 7-6 10-9.3 2.9-3.3 5.1-6.3 4.9-6.7-0.3-0.5-0.1-0.8 0.5-0.8 0.6 0 1.9-1.5 3-3.2 1-1.8 2.1-4.2 2.3-5.3 0.2-1.1 1.3-4 2.5-6.5 1.1-2.5 2.8-9.7 3.7-16 1.2-9.2 1.5-21 1.5-60.2 0-36.4-0.3-49.5-1.2-51.5-0.7-1.6-1.5-3-1.8-3.3-0.3-0.3-1-1.4-1.6-2.5-0.6-1.1-3.8-3.4-7-5.1-4.6-2.4-7.3-3.1-11.9-3.2-4.7-0.1-7.2 0.4-11.5 2.6zm365.9-0.3c-0.2 0.3-5.6 0.7-11.9 1-6.3 0.3-17 0.7-23.7 1-6.8 0.3-15.1 1.1-18.5 1.9-3.5 0.8-8.8 2.5-11.8 3.8-3 1.4-7.9 4.2-10.9 6.4-3 2.1-6.8 5.9-8.5 8.4-1.7 2.5-3 4.8-2.8 5.3 0.1 0.4-0.2 0.7-0.8 0.7-0.6 0-1.9 2.6-3.1 5.8-1.4 3.7-2.2 8.7-2.4 14.2-0.1 4.7 0 9 0.3 9.5 0.3 0.5 0.5 3.8 0.4 7.3-0.1 3.4 0.2 6.4 0.8 6.7 0.6 0.3 0.8 1 0.5 1.5-0.3 0.5-0.2 1.6 0.2 2.3 0.4 0.6 0.8 1.9 0.9 2.7 0 0.8 0.9 3.4 1.8 5.8 0.9 2.3 2 4.2 2.6 4.2 0.6 0 0.8 0.3 0.6 0.8-0.3 0.4 1.5 3.3 4 6.5 2.4 3.1 6.4 7.3 8.9 9.2 2.5 1.9 4.9 3.3 5.5 3 0.6-0.3 1-0.2 1 0.3-0.1 0.4 2 1.5 4.5 2.5 2.5 0.9 4.7 1.5 5 1.2 0.3-0.3 1.3 0.2 2.3 1.2 1.5 1.5 5.7 1.6 48.7 1 45.7-0.7 47.1-0.6 51.3 1.3 2.3 1.1 4.1 2.3 4 2.8 0 0.4 0.8 2.7 2 5.2 1.2 2.5 2.2 5.3 2.2 6.3 0 0.9-1.6 2.6-3.5 3.7-3.4 1.9-5.3 2-67.2 2-57.5 0-64 0.1-66.3 1.6-1.4 0.9-3.7 2.8-5.2 4.3-1.5 1.4-2.5 2.9-2.3 3.4 0.3 0.4 0.1 0.7-0.5 0.7-0.6 0-1.9 2.9-3 6.5-1.1 3.6-2 8.3-2 10.5 0 2.2 0.7 5.9 1.6 8.3 1 2.3 3.3 5.9 5.3 7.9 2 2.1 3.7 3.5 3.9 3.3 0.1-0.3 0.9 0.2 1.7 1 0.8 0.8 1.9 1.3 2.5 1 0.6-0.3 1.2 0 1.5 0.5 0.3 0.5 3.1 0.9 6.3 0.8 3.1-0.1 6.4 0.2 7.2 0.6 0.8 0.5 4.4 0.6 8 0.2 3.6-0.3 29.9-0.8 58.5-1.1 30.8-0.3 54.2-1 57.5-1.6 3-0.6 6.5-1.7 7.8-2.5 1.2-0.8 2.2-1.2 2.2-0.9 0 0.3 1.8-0.5 4-1.7 2.2-1.3 4-2.6 4-3 0-0.5 0.4-0.6 1-0.3 0.6 0.3 3-1.4 5.5-3.7 2.5-2.4 4.3-4.4 4-4.5-0.3-0.2 0.6-1.4 2-2.8 1.4-1.4 3.8-5.2 5.5-8.5 1.7-3.3 2.7-6 2.3-6-0.5 0.1-0.3-0.5 0.3-1.2 0.6-0.7 1.6-3.1 2.3-5.3 0.9-2.8 1.2-9.1 0.9-20.5-0.2-12.1-0.7-17.2-1.8-19-0.8-1.4-1.5-3.2-1.7-4-0.1-0.8-1.7-3.9-3.5-6.9-1.8-2.9-5.5-7.3-8.3-9.7-2.7-2.4-8.6-6.2-13-8.5-6.2-3.1-10.2-4.4-18-5.5-7.1-1.1-19.2-1.6-42-1.7-17.6-0.1-35.9 0-40.8 0.3-8.7 0.5-8.7 0.5-11.5-2.5-1.6-1.7-2.8-4-2.8-5.1 0.1-1.2 1-3.1 2.1-4.3 1.2-1.2 3.7-2.3 6-2.6 2.2-0.2 28.3-0.6 58-0.8 46.2-0.4 54.5-0.6 57.5-2 1.9-0.8 4.7-2.8 6.1-4.4 1.4-1.5 3.3-3.9 4.3-5.3 1.2-1.9 1.6-4.9 1.6-13 0-5.8-0.4-12-1-13.7-0.5-1.8-1.4-3.3-2-3.3-0.6 0-0.8-0.3-0.5-0.7 0.2-0.5-1-2.2-2.8-3.9-1.8-1.8-4.2-3.7-5.4-4.3-1.5-0.7-15.3-1.3-40.7-1.6-21.1-0.2-38.5-0.2-38.7 0zm-2450 1.4l-28.6 0.6c-5.6 4.3-8.1 6.7-9 8.3-1.3 2-1.9 5.5-2.1 13.7-0.4 10-0.2 11.5 1.9 15.9 1.3 2.8 3.7 5.9 5.2 7 1.6 1.2 3.2 2.1 3.7 2.1 0.5 0 1.2 0.3 1.7 0.8 0.4 0.4 4.7 0.7 9.4 0.7 4.7 0 8.9-0.3 9.3-0.7 0.4-0.5 5.3-0.7 10.9-0.5 5.6 0.2 12.2 0.7 14.7 1.3 3.3 0.6 4.7 1.5 5.2 3.1 0.4 1.3 0.5 28.6 0.2 60.8l-0.6 58.5c3.7 5.4 6.6 8 8.7 9.3 2.2 1.2 5.3 2.1 7 2 1.7-0.1 3.5 0.1 4 0.4 0.6 0.3 4.2 0.5 8 0.4 3.9-0.2 7.7-0.7 8.5-1.1 0.8-0.5 2.2-0.9 3.2-1 0.9 0 2.8-1.1 4.3-2.5 1.5-1.4 3.4-3.8 4.3-5.5 1.4-2.6 1.6-8 1.3-44.5-0.1-22.8-0.5-42-0.8-42.5-0.3-0.5-0.2-9.2 0.3-19.3l0.9-18.2c5 0 6.7-0.5 7-1 0.3-0.5 1.1-0.8 1.8-0.5 0.6 0.2 6.2 0.6 12.2 0.9 6.1 0.3 11 0.6 11 0.7 0 0.1 3.2 0.3 7 0.4 5 0.1 8.2-0.3 11.3-1.6 2.3-1.1 4.2-2.4 4.2-2.9 0-0.5 0.3-0.8 0.8-0.5 0.4 0.2 1.8-0.7 3.2-2.1 1.4-1.3 2.1-2.4 1.5-2.4-0.5 0-0.5-0.4 0.1-0.8 0.7-0.4 1.9-2.5 2.8-4.7 0.9-2.2 1.6-6.4 1.6-9.2 0-2.9-0.4-5.5-1-5.8-0.5-0.3-1-1.6-1-3 0-1.4-1-4.6-2.2-7.2-1.4-2.8-3.7-5.6-5.8-6.9-3.5-2.2-4.1-2.2-50.5-2.6-25.8-0.3-59.9-0.2-75.6 0.1z"/>
		<path id="Path 3" class="s0" d="m1578.5 477.7c1.7 0.2 4.8 0.2 7 0 2.2-0.2 0.8-0.4-3-0.4-3.8 0-5.7 0.2-4 0.4zm19 0c4.4 0.2 11.4 0.2 15.5 0 4.1-0.1 0.5-0.3-8-0.3-8.5 0-11.9 0.2-7.5 0.3zm102.9 39.3c0 5.2 0.1 7.3 0.3 4.5 0.2-2.7 0.2-7 0-9.5-0.2-2.5-0.3-0.2-0.3 5zm336 215c0 6.9 0.1 9.6 0.3 6 0.2-3.6 0.2-9.2 0-12.5-0.2-3.3-0.3-0.4-0.3 6.5zm-1338 74c0 8.5 0.2 11.9 0.3 7.5 0.2-4.4 0.2-11.4 0-15.5-0.1-4.1-0.3-0.5-0.3 8zm1247.1 30.7c2.8 0.2 7.5 0.2 10.5 0 3-0.2 0.8-0.3-5-0.3-5.8 0-8.2 0.1-5.5 0.3zm-918.2 30.3c0 4.7 0.2 6.5 0.4 4 0.2-2.5 0.2-6.3 0-8.5-0.2-2.2-0.4-0.2-0.4 4.5zm843 3.5c0 4.4 0.2 6 0.4 3.5 0.2-2.5 0.2-6.1 0-8-0.2-1.9-0.4 0.1-0.4 4.5zm-428.8 2.2c1.7 0.2 4.8 0.2 7 0 2.2-0.2 0.9-0.4-3-0.4-3.8 0-5.6 0.2-4 0.4zm-62 1c1.7 0.2 4.8 0.2 7 0 2.2-0.2 0.9-0.4-3-0.4-3.8 0-5.6 0.2-4 0.4zm-621.5 1c1.9 0.2 5.3 0.2 7.5 0 2.2-0.2 0.6-0.4-3.5-0.4-4.1 0-5.9 0.2-4 0.4zm444.5 2c2.2 0.2 6 0.2 8.5 0 2.5-0.2 0.7-0.4-4-0.4-4.7 0-6.7 0.2-4.5 0.4zm550 85.4c0.7 0.7 2.5 0.8 6 0.1l5-1c-10.3-0.2-11.7 0.1-11 0.9zm-712 0.6c2.8 0.2 7.5 0.2 10.5 0 3-0.2 0.8-0.3-5-0.3-5.8 0-8.2 0.1-5.5 0.3zm26 0c3.9 0.2 9.7 0.2 13 0 3.3-0.2 0.2-0.3-7-0.3-7.1 0-9.8 0.1-6 0.3zm58 0c6.1 0.2 16.2 0.2 22.5 0 6.3-0.1 1.4-0.3-11-0.3-12.4 0-17.5 0.2-11.5 0.3zm58.5 0c8 0.2 20.6 0.2 28 0 7.4-0.1 0.9-0.3-14.5-0.3-15.4 0-21.5 0.2-13.5 0.3zm677.5 3c3.3 0.2 8.9 0.2 12.5 0 3.6-0.2 0.9-0.3-6-0.3-6.9 0-9.8 0.1-6.5 0.3zm-92 10c3.3 0.2 8.9 0.2 12.5 0 3.6-0.2 0.9-0.3-6-0.3-6.9 0-9.8 0.1-6.5 0.3zm-794.5 1c2.5 0.2 6.1 0.2 8 0 1.9-0.2-0.1-0.4-4.5-0.4-4.4 0-6 0.2-3.5 0.4zm667 0c4.7 0.2 11.9 0.2 16 0 4.1-0.1 0.3-0.3-8.5-0.3-8.8 0-12.2 0.2-7.5 0.3zm-212 1c10.7 0.2 27.8 0.2 38 0 10.2-0.1 1.4-0.2-19.5-0.2-20.9 0-29.2 0.1-18.5 0.2z"/>
		<path id="Path 4" class="s1" d="m1555 478.7c1.9 0.2 5.3 0.2 7.5 0 2.2-0.2 0.6-0.4-3.5-0.4-4.1 0-5.9 0.2-4 0.4zm481.3 208.8c0 4.4 0.2 6 0.4 3.5 0.2-2.5 0.2-6.1 0-8-0.2-1.9-0.4 0.1-0.4 4.5zm-1292.8-0.3c-1.4 1.8-4.1 5-5.8 7.1-1.8 2.1-3.9 5-4.7 6.5-0.8 1.6-3.4 6.6-5.8 11.3-2.3 4.6-4.4 9.1-4.5 9.9-0.2 0.8-0.8 3.1-1.5 5-0.6 1.9-1.4 4.9-1.7 6.5-0.3 1.6-0.9 5.7-1.2 9-0.4 4.1-0.2 6.2 0.5 6.7 0.7 0.5 1.9-0.2 2.9-1.7 1-1.3 2-2.3 2.3-2.1 0.3 0.3 0.5-1 0.6-2.7 0-1.8 1.3-6.1 2.8-9.7 1.5-3.6 4-9.1 5.4-12.3 1.5-3.1 2.9-5.7 3.2-5.7 0.3 0 1.4-1.9 2.5-4.2 1.1-2.4 2.2-4.5 2.5-4.8 0.3-0.3 2.7-3.9 5.5-8 2.7-4.1 5.1-8.1 5.3-8.8 0.1-0.7-0.6-2.2-1.8-3.3-1.1-1-2.4-1.9-2.9-1.9-0.5 0-2.1 1.5-3.6 3.3zm977 33.4c3.3 0.2 8.2 0.2 11 0 2.7-0.2 0-0.3-6-0.3-6.1 0-8.3 0.1-5 0.3zm314.9 73.8c0 9.4 0.2 13.4 0.3 9 0.2-4.4 0.2-12 0-17-0.1-5-0.3-1.4-0.3 8zm-389.5-9c-1.9 2-2.9 3.5-2.4 3.5 0.5 0 2.3-1.3 4-3 1.7-1.6 2.7-3.2 2.4-3.5-0.3-0.2-2.1 1.1-4 3zm640.6 10.2c2.2 0.2 6 0.2 8.5 0 2.5-0.2 0.7-0.4-4-0.4-4.7 0-6.7 0.2-4.5 0.4zm-7 17c1.7 0.2 4.8 0.2 7 0 2.2-0.2 0.8-0.4-3-0.4-3.8 0-5.7 0.2-4 0.4zm-192 40c50.1 0.2 132.2 0.2 182.5 0 50.3-0.1 9.4-0.2-91-0.2-100.4 0-141.6 0.1-91.5 0.2zm-559.5 18c1.9 0.2 5.3 0.2 7.5 0 2.2-0.2 0.6-0.4-3.5-0.4-4.1 0-5.9 0.2-4 0.4zm-289 5c1.9 0.2 5.3 0.2 7.5 0 2.2-0.2 0.6-0.4-3.5-0.4-4.1 0-5.9 0.2-4 0.4zm855.5 40c22.6 0.2 59.7 0.2 82.5 0 22.8-0.1 4.4-0.2-41-0.2-45.4 0-64.1 0.1-41.5 0.2zm-20 17c18.7 0.2 49.1 0.2 67.5 0 18.4-0.1 3.1-0.2-34-0.2-37.1 0-52.2 0.1-33.5 0.2zm-1062.5 31c4.1 0.2 10.6 0.2 14.5 0 3.8-0.1 0.5-0.3-7.5-0.3-8 0-11.1 0.2-7 0.3zm819.5 8.8c1.6 1.1 1.7 1.4 0.5 1.8-0.8 0.3 0 0.6 1.7 0.6 1.8 0.1 3.3-0.4 3.3-0.9 0-0.5-1.1-1.5-2.5-2-1.4-0.5-3.1-1-3.8-1-0.6 0-0.3 0.7 0.8 1.5zm-122 3.2c3.3 0.2 8.9 0.2 12.5 0 3.6-0.2 0.9-0.3-6-0.3-6.9 0-9.8 0.1-6.5 0.3zm-704.5 1c4.7 0.2 12.1 0.2 16.5 0 4.4-0.1 0.6-0.3-8.5-0.3-9.1 0-12.7 0.2-8 0.3zm33 0c2.5 0.2 6.1 0.2 8 0 1.9-0.2-0.1-0.4-4.5-0.4-4.4 0-6 0.2-3.5 0.4zm20 0c2.5 0.2 6.1 0.2 8 0 1.9-0.2-0.1-0.4-4.5-0.4-4.4 0-6 0.2-3.5 0.4zm501 0c4.7 0.2 12.8 0.2 18 0 5.2-0.1 1.4-0.3-8.5-0.3-9.9 0-14.2 0.2-9.5 0.3zm284.5 62c5.5 0.2 14 0.2 19 0 4.9-0.1 0.4-0.3-10-0.3-10.5 0-14.5 0.2-9 0.3zm194.5 1c5.8 0.2 15.4 0.2 21.5 0 6.1-0.1 1.3-0.3-10.5-0.3-11.8 0-16.8 0.2-11 0.3zm-822.8 51.6c-0.1 13.6 0.1 24.7 0.5 24.7 0.5 0 0.7-7.3 0.5-16.2-0.1-9-0.3-20.1-0.5-24.8-0.2-4.7-0.4 2.6-0.5 16.3zm130.2-0.8c0 8.8 0.2 12.2 0.3 7.5 0.2-4.7 0.2-11.9 0-16-0.1-4.1-0.3-0.3-0.3 8.5zm-319.9 0.2c4.9 0.2 12.6 0.2 17 0 4.4-0.1 0.3-0.3-9-0.3-9.4 0-13 0.2-8 0.3zm-29 16c1.6 0.2 4.8 0.2 7 0 2.2-0.2 0.8-0.4-3-0.4-3.9 0-5.7 0.2-4 0.4zm274 0c1.6 0.2 4.8 0.2 7 0 2.2-0.2 0.8-0.4-3-0.4-3.9 0-5.7 0.2-4 0.4zm-837.2 52.8c0 4.4 0.2 6 0.4 3.5 0.2-2.5 0.2-6.1 0-8-0.2-1.9-0.4 0.1-0.4 4.5zm782 19.5c0 4.1 0.2 5.9 0.4 4 0.2-1.9 0.2-5.3 0-7.5-0.2-2.2-0.4-0.6-0.4 3.5zm-222.3-4.3c3 0.2 8.2 0.2 11.5 0 3.3-0.2 0.8-0.3-5.5-0.3-6.3 0-9 0.1-6 0.3z"/>
		<path id="Path 5" fill-rule="evenodd" class="s2" d="m2295 331.6c3.1 0.2 5.1 1 6.5 2.6 1.1 1.2 3.5 4.9 5.3 8.3 1.8 3.3 6 11.6 9.3 18.5 3.3 6.9 7.1 14.5 8.4 17 1.2 2.5 3.4 6.6 4.9 9.2 1.4 2.7 2.3 4.8 1.8 4.8-0.4 0-0.2 0.4 0.5 0.8 0.6 0.4 4.1 6.4 7.7 13.4 3.6 7.1 6.4 13.1 6.1 13.5-0.2 0.5 0.6 2.1 2 3.8 1.4 1.6 2.7 4.2 3 5.7 0.3 1.6 0.9 3 1.5 3.3 0.6 0.3 2.3 3.1 4 6.2 1.6 3.2 2.6 6.1 2.3 6.5-0.3 0.5-0.1 0.8 0.5 0.8 0.7 0 1 0.4 0.7 1-0.3 0.5-0.1 1.1 0.5 1.2 0.5 0.2 5.8 10 11.8 21.8 6 11.8 15 29.4 29.3 56.5l-2.8 3.1c-1.5 1.8-4.1 3.5-5.8 3.9-1.7 0.4-3.7 1.4-4.5 2.1-0.8 0.7-3.1 1.8-5 2.5-1.9 0.6-6.2 2.4-9.5 3.9-3.3 1.6-9.6 4.5-14 6.6-6.3 3-9.2 3.8-13.7 3.9-4.4 0-6.1-0.5-8-2.2-1.3-1.2-4.8-7.2-7.8-13.3-3-6.1-9.2-18.4-13.8-27.3-4.6-8.9-14.2-28.1-21.3-42.7-7.2-14.6-20.8-42-30.2-61-9.5-19-19.2-38.7-21.7-43.9-2.5-5.2-4.4-9.8-4.3-10.2 0.2-0.5-0.1-0.9-0.7-0.9-0.6 0-0.7-0.5-0.4-1 0.3-0.6 0.2-1-0.2-1-0.5 0-1.5-1.1-2.2-2.5-0.6-1.4-1.2-3.2-1.2-4 0-0.8 0.7-2.2 1.5-3 0.8-0.8 2.7-1.7 4.2-2 1.6-0.2 5.3-0.7 8.3-1 3-0.3 8.7-1 12.5-1.5 3.8-0.6 10.1-1.2 13.9-1.4 3.8-0.3 7.4-0.7 8-1 0.6-0.3 2.7-0.7 4.6-1 1.9-0.2 5.5-0.2 8 0zm-89.3 8.4c0.7 0 2.8 0.6 4.5 1.3 1.8 0.7 4.5 2.9 6 4.8 1.4 1.9 4.5 7.2 6.9 11.9 2.3 4.7 6.4 12.9 9.1 18.2 2.6 5.4 4.9 10.4 5 11 0.2 0.7 0.6 1.5 0.9 1.8 0.4 0.3 1.5 2.3 2.4 4.5 1 2.2 1.7 4.3 1.7 4.7-0.1 0.5 0.1 0.8 0.5 0.8 0.5-0.1 3.2 4.8 6.2 10.7 3 5.9 5.5 11.2 5.6 11.8 0.1 0.5 1.1 2.6 2.3 4.5 1.2 1.9 8.6 16.3 16.3 32 7.8 15.7 17.1 34.1 20.6 41 3.5 6.9 11.4 22.6 17.4 35 7.8 15.9 10.9 23.2 10.5 24.7-0.4 1.5-3.9 4.5-9.9 8.4-5 3.3-10.5 6.4-12.1 6.7-1.6 0.4-3 1-3.2 1.4-0.2 0.5-1.3 0.8-2.4 0.8-1.1 0-2 0.3-2 0.7 0 0.5-1.2 1.3-2.7 2-1.6 0.7-6.4 2.3-10.8 3.7-4.4 1.4-9 2.6-10.3 2.6-1.2 0-3.4-0.6-5-1.4-1.5-0.7-4.1-3.1-5.8-5.2-1.8-2.2-13.5-24.8-26.2-50.4-12.7-25.6-23.2-47.2-23.4-48-0.1-0.8-0.6-1.7-1-2-0.3-0.3-14.2-27.7-30.7-61-26.1-52.4-30.1-61-29.9-64.4 0.3-3.3 0.8-4.3 3.8-5.9 2.6-1.5 7.2-2.3 18.5-3.3 8.2-0.8 19.5-1.6 25-2 5.5-0.3 10.2-0.8 10.4-1 0.2-0.2 1-0.4 1.8-0.4zm-86.7 10.1c2.9 0 5.2 0.6 6.6 1.7 1.1 0.9 2.8 2.9 3.7 4.4 0.9 1.6 1.4 2.8 0.9 2.8-0.4 0-0.2 0.4 0.4 0.8 0.6 0.4 2.1 2.6 3.3 4.9 1.1 2.4 1.9 4.3 1.6 4.3-0.3 0-0.1 0.6 0.5 1.2 0.5 0.7 2.6 4.3 4.5 8 1.9 3.8 3.2 6.8 2.7 6.8-0.4 0-0.2 0.4 0.5 0.8 0.6 0.4 3 4.7 5.3 9.7 2.3 4.9 5.7 11.9 7.6 15.5 1.9 3.6 5.1 9.9 7 14 1.9 4.1 4 8.3 4.5 9.2 0.5 1 1.3 2.6 1.9 3.5 0.5 1 2.3 4.5 3.9 7.8 1.5 3.3 6.1 12.3 10 20 3.9 7.7 6.9 14.2 6.6 14.5-0.3 0.3 0.1 1.2 0.9 2 0.8 0.8 4.6 7.8 8.5 15.5 3.9 7.7 7.1 14.6 7.1 15.2 0 0.7 0.4 1.3 1 1.3 0.6 0 1 0.8 1 1.7-0.1 1 0.6 2.5 1.5 3.3 0.9 0.8 1.6 1.8 1.5 2.2 0 0.5 2.7 6.3 6.1 13 3.3 6.8 6.3 13.2 6.5 14.3 0.2 1.1 0.8 2.2 1.3 2.5 0.5 0.3 5 8.7 10 18.7 5 10.1 9.1 18.8 9.1 19.3 0 0.5 0.4 1 1 1 0.6 0 1 0.8 1 1.7 0 1-0.7 2.8-1.5 4-1 1.5-3.3 2.7-6.8 3.5-2.8 0.6-5.7 1.6-6.2 2.2-0.6 0.6-5.5 2.8-11 4.9-5.5 2.2-11.8 4.7-14 5.7-2.2 1.1-6.7 3.1-10 4.6-5.4 2.4-6.2 2.5-8.5 1.2-1.4-0.7-2.9-2.3-3.5-3.3-0.6-1.1-2.6-4.5-4.5-7.5-1.9-3-4.1-6.4-4.8-7.5-0.6-1.1-2.1-3.8-3.3-6-1.2-2.2-3.5-5.7-5-7.8-2.1-2.6-3.7-3.7-5.7-3.7-1.5-0.1-3.4 0.6-4.2 1.5-0.8 0.9-1.9 1.6-2.5 1.5-0.6 0-1.8 1.5-2.8 3.2-1.3 2.3-1.6 4.2-1.1 6.3 0.4 1.6 1.9 5 3.2 7.5 1.4 2.5 2.8 4.7 3.3 5 0.4 0.3 1.7 2.6 2.8 5.2 1.2 2.7 1.8 4.8 1.3 4.8-0.4 0-0.2 0.4 0.5 0.8 0.6 0.4 1.3 1.4 1.5 2.2 0.1 0.8 0.6 1.9 1 2.5 0.4 0.5 2.1 2.6 3.7 4.5 1.7 1.9 3 4.2 3 5 0 0.8 0.4 1.2 0.8 0.8 0.4-0.4 2.7 1 5 3.2 4.1 3.8 4.4 3.9 6.8 2.5 1.4-0.8 2.5-1.2 2.5-0.8 0 0.5 0.4 0.3 0.8-0.2 0.4-0.6 3.9-2.5 7.7-4.2 3.8-1.8 9-3.9 11.5-4.8 2.5-0.9 5.5-2.2 6.7-3 1.3-0.8 3.1-1.6 4.1-1.8 1-0.1 3-1 4.5-2 1.5-0.9 3.1-1.7 3.7-1.7 0.6 0 4.9-1.9 9.7-4.1 4.9-2.3 9.4-4.2 10-4.3 0.7-0.1 1.3-0.4 1.3-0.9 0-0.4 1-0.9 2.2-1.2 1.3-0.2 2.7-0.4 3.3-0.4 0.6 0.1 1.2-0.3 1.5-0.8 0.3-0.5 2.5-1.7 5-2.8 2.4-1.1 4.8-1.9 5.2-1.8 0.5 0.2 0.8-0.2 0.8-0.7 0-0.5 1.2-1.3 2.7-1.6 1.6-0.3 6-2.1 9.8-4 3.8-1.9 7.7-3.6 8.5-3.8 0.8-0.1 2.5-0.5 3.7-0.9 1.3-0.4 2.3-1.2 2.3-1.7 0-0.5 0.8-0.9 1.7-0.7 1 0.1 2.2-0.3 2.8-0.9 0.6-0.7 4.4-2.7 8.5-4.4 4.1-1.8 8.2-3.4 9-3.6 0.8-0.1 1.6-0.3 1.7-0.3 0.2-0.1 0.8-0.2 1.3-0.4 0.6-0.1 1.4-0.7 1.8-1.3 0.4-0.6 2.2-1.6 3.9-2.2 1.8-0.7 3.3-0.9 3.3-0.5 0 0.5 0.5 0 1.2-0.9 0.7-1 2.2-1.9 3.3-2.1 1.1-0.2 5.2-1.8 9-3.6 3.8-1.8 9.2-4.4 12-5.6 2.7-1.3 7.6-3.5 10.7-4.9 3.2-1.4 5.8-2.4 5.8-2.1 0 0.3 1.3-0.4 3-1.5 1.7-1.1 3-1.7 3-1.3-0.1 0.5 0.6 0.2 1.5-0.5 0.8-0.6 1.9-1 2.5-0.7 0.6 0.3 1 0 1-0.5 0-0.5 0.9-1 2-1 1.1 0 2.2-0.5 2.5-1 0.3-0.5 1.7-1.5 3.2-2.1 1.6-0.6 3.2-1.2 3.8-1.3 0.6-0.1 5.1-2.1 10-4.5 4.9-2.3 10.8-5.1 13-6.1 2.2-1.1 6.7-3.1 10-4.5 3.3-1.5 6.8-2.7 7.7-2.8 1-0.1 1.9-0.7 2.1-1.2 0.2-0.5 1.7-1.4 3.3-1.8 1.6-0.5 5.1-1.9 7.9-3.2 2.7-1.3 5.7-2.5 6.5-2.7 0.8-0.2 1.7-0.6 2-0.9 0.3-0.3 2.1-1.3 4-2.2 1.9-1 3.9-1.7 4.5-1.7 0.6 0 3.5-1.3 6.5-2.9 3-1.7 8.9-4.4 13-6.1 4.1-1.7 8.4-3 9.5-3 1.1 0 2.9 1 3.9 2.2 1.1 1.3 4.1 6.6 6.8 11.8 2.6 5.2 4.5 9.8 4.3 10.2-0.3 0.5-0.2 0.8 0.2 0.8 0.5-0.1 1.4 1.2 2.1 2.7 0.8 1.5 1.1 3.8 0.8 5-0.4 1.5-3.4 4-8.4 7-4.2 2.6-10.6 6.6-14.2 8.9-3.6 2.3-7.7 4.7-9.3 5.3-1.5 0.6-5.1 3.5-13.6 11.6l3.9 7.5c2.1 4.1 4.1 9.1 4.5 11 0.4 2.6 0 4.7-1.7 7.9-1.5 2.9-4.1 5.7-7.3 7.9-4.4 3-5.6 3.3-10 2.9-2.8-0.2-7.5-1.4-10.5-2.5-3.9-1.5-6.3-3.2-8.3-5.9-2-2.7-2.8-5.1-2.9-8.3-0.1-2.5 0.4-6.8 1.2-9.5 0.7-2.8 1.8-5.6 2.4-6.3 0.8-1 0.6-1.3-0.9-1.2-1.1 0-3.3 0.7-5 1.6-1.7 0.9-7.9 3.8-14 6.4-6.1 2.6-15.3 6.7-20.5 8.9-5.2 2.3-10.7 4.8-12.3 5.6-1.5 0.8-3.6 1.5-4.7 1.5-1.1 0-2.2 0.3-2.4 0.7-0.2 0.5-5.5 3-11.7 5.7-6.3 2.6-13 5.6-14.9 6.6-1.9 1-5.8 2.7-8.5 3.8-2.8 1.1-9.4 4-14.8 6.6-8.7 4.1-10 5.1-13.1 9.8-1.9 2.9-5.9 7.7-9 10.5-3.1 2.9-5.8 6.1-6.1 7-0.3 1 0.6 5.2 2 9.3 1.4 4.1 2.5 8.9 2.5 10.5 0.1 1.6-0.8 4.2-2 5.7-1.1 1.6-2 3-2 3.3 0 0.3-1.7 2.3-3.8 4.5-2 2.2-5.2 4.7-7 5.5-1.7 0.8-4.9 1.5-7 1.5-2.3 0-4.9-0.8-6.8-2.2-1.8-1.3-4.8-4.6-6.8-7.3-2-2.8-4.3-6.5-5.1-8.3-0.8-1.7-1.5-3.9-1.5-4.7 0-0.8 0.4-1.5 1-1.5 0.6 0 1-0.7 1-1.5 0-0.8 1.8-3.4 4-5.8 2.2-2.3 4.1-4.4 4.1-4.7 0-0.3 1-1.4 2.2-2.6 1.2-1.1 2.8-3 3.4-4.2 0.7-1.2 1.3-2.4 1.3-2.7 0-0.3-1.1-0.3-2.5 0-1.4 0.3-4.6 1.8-7.3 3.5-2.6 1.6-5.1 3-5.7 3-0.6 0-2 0.8-3.1 1.8-1.7 1.4-2.1 2.5-1.8 5.9 0.2 2.5 0 4.3-0.6 4.3-0.6 0-1 0.6-1 1.2 0 0.7-1.7 2.3-3.7 3.5-2.1 1.2-6.3 3.1-9.3 4.3-3 1.2-6.8 2.8-8.5 3.5-1.7 0.7-7.1 3-12 5-4.9 2-10.1 4.2-11.5 4.9-1.4 0.6-3.1 1.7-3.8 2.3-0.6 0.7-3.3 1.8-6 2.5-2.6 0.7-5.5 1.1-6.5 1-0.9-0.1-2.5-0.2-3.5-0.2-0.9 0-3.4-1.8-5.5-4-2-2.2-3.7-4.7-3.7-5.5 0-0.8-2.1-3.8-4.8-6.6-2.6-2.8-5.8-5.7-7.2-6.5-1.5-0.7-4.1-1.1-6.5-0.8-2.2 0.3-6.5 1.8-9.5 3.2-3.9 1.9-7.1 2.7-11.1 2.7-4.3 0-6.4-0.6-9.5-2.6-2.8-1.8-5-4.6-7.8-10-2.1-4.1-9.1-17.8-15.6-30.4-6.4-12.6-12.1-23.9-12.7-25-0.6-1.1-2.4-4.6-4-7.8-1.5-3.2-3.6-6.7-4.6-7.8-1-1.1-3-1.9-5-1.9-1.7 0-7.9 2.1-13.7 4.7-5.8 2.5-13.9 6.1-18 8.1-4.1 1.9-13.5 6.3-20.8 9.8-7.2 3.5-13.5 7-13.9 7.6-0.4 0.7-0.8 1.8-1 2.3-0.1 0.5 0.8 2 2 3.3 2.1 2.1 2.4 2.2 6.7 0.7 2.5-0.9 5.5-1.5 6.7-1.5 1.3 0 2.5 0.7 2.8 1.5 0.3 0.8 1 1.3 1.5 1 0.5-0.3 1 0 1 0.5 0 0.5 0.7 1.8 1.6 2.7 1.4 1.6 1.6 4.1 1 21.3-0.4 10.7-1 44.2-1.4 74.5-0.4 30.2-0.6 67.4-0.2 110l-2.7 1.6c-2.5 1.5-9.7 1.8-65.8 2.2-34.7 0.3-66.4 0.8-70.5 1.2-4.1 0.3-9.8 1-12.5 1.5-3.5 0.7-5.9 1.9-8.2 4.2-1.7 1.8-3.7 4.7-4.3 6.3-0.6 1.6-1.3 10.9-1.6 20.5-0.3 9.6-0.6 21.3-0.8 26-0.3 6.6-0.7 8.7-2 9.5-1.4 0.8-2.3 0.3-4.7-2.3-2.6-2.9-2.9-3.9-3-11-0.1-4.2-0.3-8.8-0.4-10.2-0.2-1.4-0.6-11-0.9-21.5-0.4-10.5-0.9-20.8-1.1-23-0.2-2.2-0.7-7.6-1-12-0.4-4.4-2-13.1-3.6-19.3-1.6-6.1-4.3-14-6-17.5-1.7-3.4-5.1-9.1-7.4-12.7-2.4-3.6-9.2-11.2-15.2-17-6-5.8-13.1-11.8-15.8-13.4-2.8-1.6-5.2-3.2-5.5-3.6-0.3-0.3-3-2-6-3.7-3-1.7-9.3-4.6-14-6.6-4.7-1.9-11.7-4.5-15.5-5.7-3.8-1.3-7.9-2.6-9-3.1-1.1-0.4-5.6-1-10-1.3-4.4-0.4-13-0.9-19-1.3-7.4-0.4-12.5-0.2-15.5 0.6-2.5 0.6-5.6 1.4-7 1.6-1.4 0.3-4.1 0.8-6 1.1-1.9 0.3-7.5 1.7-12.5 3-5 1.3-11.9 3.5-15.5 5-3.6 1.4-10.8 4.8-16 7.5-5.2 2.7-11.1 6.2-13.1 7.7-1.9 1.5-6.4 4.9-10 7.5-3.5 2.7-10.1 8.8-14.6 13.5-4.6 4.8-8.3 8.9-8.3 9.2 0.1 0.3-1.1 1.7-2.5 3.2-1.4 1.6-2.5 3-2.5 3.3 0 0.3-2.1 4-4.8 8.3-2.6 4.2-5.2 8.8-5.8 10.2-0.7 1.4-2.5 6.1-4.2 10.5-1.6 4.4-4.4 13.6-6.1 20.5-1.7 6.9-3.5 16.4-4.1 21.2-0.5 4.9-1.5 9.7-2 10.8-0.5 1.1-2.2 2.8-3.8 3.7-2.3 1.5-6.6 1.7-32.2 2-16.2 0.1-41.9 0.5-57 0.8-15.1 0.3-41.2 0.7-58 1-16.8 0.3-44.2 0.7-61 1-16.8 0.3-42.7 0.7-57.5 1-14.8 0.2-40.7 0.7-57.5 1-16.8 0.3-44 0.7-60.5 1-16.5 0.3-36.8 0.7-45 1-8.3 0.2-20.6 0.7-27.5 1-6.9 0.3-15.4 1.2-19 2.1-3.6 0.8-9.2 2.5-12.5 3.7-3.3 1.1-7.3 3-8.8 4.1-1.6 1.2-3.7 4.1-4.8 6.6-1.1 2.5-1.9 6.5-1.9 9 0 2.6-0.8 6-1.9 8-1.1 2-3 3.8-4.5 4.2-1.7 0.5-3.5 0.3-5.1-0.7-1.4-0.8-3.2-3-4.1-4.8-1.1-2.2-1.7-6.7-1.9-14.2-0.2-6-0.6-14.4-1-18.5-0.3-4.1-0.8-10-1-13-0.3-3-0.9-8.9-1.5-13-0.6-4.1-2-12.9-3.1-19.5-1.2-6.6-2.7-14.5-3.5-17.5-0.8-3-2.2-8-3.1-11-1-3-2-6-2.4-6.5-0.4-0.5-2.2-3.7-3.9-7-1.8-3.3-4.6-8-6.4-10.4-1.7-2.4-5.6-7-8.6-10.3-3-3.2-6.1-5.9-6.8-5.8-0.6 0-1.6-0.8-2.1-1.8-0.4-0.9-3.9-3.7-7.7-6.2-3.8-2.4-10-6.3-13.9-8.5-3.9-2.2-11.7-5.9-17.5-8.2-5.8-2.4-12.1-4.6-14-4.9-1.9-0.4-4.6-1.3-6-2-1.4-0.7-2.7-1.1-3-0.8-0.3 0.2-4.3-0.2-9-1.1-4.7-0.8-13.9-1.6-20.5-1.8-6.6-0.1-14.9 0.1-18.5 0.5-3.6 0.5-7.4 1-8.5 1.2-1.1 0.2-4.9 0.9-8.5 1.6-3.6 0.7-9.4 2.3-13 3.5-3.6 1.3-9.6 3.8-13.5 5.7-3.9 1.8-9 4.6-11.5 6.2-2.5 1.6-9.4 7.3-15.4 12.5-5.9 5.3-12.9 12.3-15.5 15.6-2.5 3.3-5.5 7.4-6.6 9-1.1 1.6-2.5 3.9-3 5-0.6 1.1-2.7 5.1-4.6 9-2 3.9-4.4 9.2-5.3 12-1 2.7-3.1 11.1-4.7 18.5-1.7 8.4-3.1 18.4-3.5 26.5-0.3 7.1-1 13.8-1.5 14.7-0.5 1-2.8 2.3-5.2 2.9-2.3 0.6-10.3 1.1-17.7 1-7.4 0-16-0.5-19-1.1-3-0.6-6-1.4-6.5-1.8-0.5-0.3-2.1-0.7-3.5-0.9-1.4-0.1-7.7-2.8-14-6-7.2-3.6-13.1-7.3-15.8-10-2.3-2.4-4.3-5.1-4.4-6.1-0.1-0.9-0.2-4-0.3-6.7-0.1-2.8-0.3-16.3-0.4-30-0.1-16 0.2-27 1-30.5 0.6-3 1.6-6.1 2.3-6.8 0.6-0.8 0.7-1.3 0.1-1.3-0.5 0-0.1-0.6 1-1.4 1.1-0.9 1.7-1.5 1.2-1.5-0.4 0-0.4-0.6 0-1.3 0.4-0.6 0.8-1.5 0.8-1.8 0-0.4 1.6-3.1 3.5-6 1.9-3 4.5-6.6 5.7-8.1 1.3-1.6 3-2.8 3.8-2.8 0.8 0 2.3-1.1 3.2-2.3 1.1-1.4 2.6-2.2 3.8-2 1.1 0.1 4-0.2 6.5-0.7 2.5-0.6 5-1 5.5-1 0.5 0.1 1.2-0.2 1.5-0.8 0.3-0.5 3.4-2.5 7-4.5 3.6-2 7.4-3.7 8.6-3.9 1.1-0.2 2.7-0.8 3.5-1.4 0.8-0.7 3.4-2.3 5.9-3.6 2.5-1.4 7.6-4.2 11.5-6.3 3.9-2 7.7-4.4 8.5-5.1 0.8-0.8 1.9-1.1 2.3-0.7 0.4 0.5 0.7 0.2 0.7-0.5 0-0.6 0.5-1.2 1-1.2 0.5 0 3.4-1.5 6.2-3.2 2.9-1.8 5.6-3.7 6-4.3 0.4-0.5 0.8-0.7 0.8-0.3 0 0.5 0.6 0.3 1.2-0.2 0.7-0.6 2.7-2.1 4.3-3.3 1.6-1.2 3.1-2.9 3.3-3.7 0.1-0.8-0.3-3.1-0.9-5-0.7-1.9-2.2-4.5-3.3-5.8-1.2-1.2-4.4-3.2-7.1-4.3-4.8-2-5.6-2.1-20-1-8.3 0.7-16.6 1.4-18.5 1.7-1.9 0.2-4.3 0.7-5.3 0.9-0.9 0.3-2.6 0-3.7-0.5-1.1-0.5-2-1.7-2-2.5 0-0.8 0.6-1.5 1.2-1.5 0.7 0 0.9-0.3 0.5-0.7-0.4-0.5 2.1-3.6 5.5-7.1 3.5-3.4 6.6-6.2 7-6.2 0.5 0 1.8-0.9 3-2 1.3-1.1 2.9-2 3.5-2 0.7 0 1.3-0.5 1.3-1 0-0.5 1.9-1.9 4.2-2.9 2.4-1.1 10.6-3.5 18.3-5.5 7.7-1.9 16.9-4 20.5-4.7 3.6-0.7 7.4-1.3 8.5-1.4 1.1-0.1 2.7-0.5 3.5-0.8 0.8-0.3 4.6-1.1 8.5-1.7 3.9-0.7 7.9-1.3 9-1.4 1.1-0.1 2.5-0.5 3-0.8 0.5-0.4 3.5-0.9 6.5-1.2 3-0.3 9.1-1.2 13.5-2 4.4-0.8 12.7-2 18.5-2.7 5.8-0.6 12.5-1.3 15-1.4 2.5-0.2 7-0.8 10-1.4 3-0.7 7.1-1.1 9-1 1.9 0.1 5.1-0.1 7-0.5 1.9-0.3 7.8-0.9 13-1.2 5.2-0.3 11.1-0.8 13-1 1.9-0.2 6-0.8 9-1.3 3-0.5 8.2-1.2 11.5-1.6 3.3-0.4 7.4-0.9 9-1.1 1.6-0.2 8.2-0.4 14.5-0.4 6.3-0.1 16.9 0.1 23.5 0.4 6.6 0.3 15.8 0.9 20.5 1.5 4.7 0.6 10.7 0.7 13.5 0.3 2.7-0.4 6.1-1.5 7.5-2.3 1.4-0.9 2.8-1.7 3.2-1.8 0.5 0 1.9-1.5 3.3-3.1 1.4-1.6 3.2-3 4-3 0.8 0 1.5-0.6 1.5-1.3 0-0.6 0.3-0.9 0.7-0.5 0.5 0.4 2.4-1 4.3-3 2-2 5.3-5.2 7.5-6.9 2.2-1.8 4.4-3.3 4.8-3.3 0.4 0 2.3-1.6 4.2-3.5 1.9-1.9 4-3.3 4.5-3 0.5 0.3 1 0 1-0.5 0-0.5 2.7-3 6-5.5 3.3-2.5 6.2-4.5 6.5-4.5 0.3 0 1.5-0.9 2.7-2 1.3-1.1 2.6-1.7 3-1.5 0.5 0.3 1-0.2 1.3-1 0.3-0.8 3.9-3.9 8.1-6.8 4.2-2.8 9.1-6.2 10.8-7.3 1.7-1.2 3.4-2 3.8-1.8 0.5 0.2 1-0.3 1.3-1.1 0.3-0.8 1-1.5 1.5-1.5 0.5 0 1.7-0.6 2.5-1.3 0.9-0.6 2.4-1.9 3.3-2.8 0.9-0.8 6.2-4.5 11.7-8.1 5.5-3.6 11-6.8 12.2-7.2 1.3-0.3 2.5-1.3 2.8-2.1 0.3-0.8 1.8-1.7 3.5-2 1.7-0.3 3-1 3-1.5 0-0.5 1.5-1.9 3.2-2.9 1.8-1.1 3.9-2.1 4.7-2.3 0.8-0.2 2.2-1 3.1-1.8 0.9-0.8 3.1-2.3 4.8-3.3 1.8-0.9 3.5-1.7 3.9-1.6 0.5 0 1.1-0.6 1.5-1.5 0.5-0.9 1.3-1.4 1.8-1.1 0.5 0.3 1 0 1-0.5 0-0.5 1-1.3 2.2-1.7 1.3-0.4 2.6-0.6 3-0.5 0.5 0.1 0.8-0.3 0.8-0.8 0-0.5 1.7-1.9 3.7-3 2.1-1 4.1-1.6 4.6-1.2 0.4 0.4 0.7 0.1 0.7-0.6 0-0.6 1.7-2.1 3.7-3.2 2.1-1 4.1-1.6 4.5-1.2 0.4 0.4 1-0.1 1.3-1.1 0.3-0.9 1-1.5 1.5-1.2 0.5 0.3 1 0.2 1-0.3-0.1-0.4 3-2.1 6.7-3.9 3.7-1.7 9.2-4.1 12-5.2 2.9-1.2 5.3-1.8 5.3-1.4-0.1 0.5 0.6 0.1 1.5-0.7 0.9-0.8 1.5-1.1 1.5-0.5-0.1 0.6 0.5 0.5 1.2-0.2 0.7-0.6 4.9-2.1 9.3-3.3 4.4-1.2 11.4-2.8 15.5-3.6 4.1-0.8 9.3-1.7 11.5-2 2.2-0.2 8.3-1.1 13.5-1.9 5.2-0.9 13.3-1.7 18-2 4.7-0.3 13.2-0.7 19-1 5.8-0.2 16.6-0.7 24-1 7.4-0.3 18.5-0.8 24.5-1 6-0.3 17.3-0.7 25-1 7.7-0.3 22.5-0.7 33-1 10.5-0.3 27.8-0.7 38.5-1 10.7-0.2 35.5-0.6 55-0.9 19.5-0.4 53-0.8 74.5-1 21.5-0.2 41.2 0 44 0.4 2.7 0.5 6.1 1.1 7.5 1.3 1.4 0.3 3.3 0.8 4.2 1.1 1 0.3 1.8 0.9 1.8 1.3 0 0.5 1 0.9 2.2 1 1.3 0.2 4.5 2.7 7.3 5.8 3.1 3.3 5.7 7.4 6.8 10.7 1.7 4.6 2 9.4 2.3 36.3 0.2 17 0.6 36.9 0.8 44 0.3 7.1 0.7 16.8 1.1 21.5 0.4 4.7 0.8 9.9 1 11.5 0.2 1.6 0.6 4.1 0.9 5.5 0.3 1.4 2.3 3.8 4.3 5.3 3.3 2.4 4.4 2.7 8.5 2.3 2.8-0.4 9.4-2.8 15.5-5.8 6-2.8 11.4-5.2 12-5.2 0.7-0.1 1.3-0.4 1.3-0.9 0-0.4 1-1 2.2-1.3 1.3-0.4 2.5-0.6 2.8-0.5 0.3 0.2 0.7-0.1 1-0.6 0.3-0.4 4.4-2.7 9.2-5.1 4.9-2.3 9.4-4.2 10-4.2 0.7 0.1 2-0.6 2.8-1.5 0.8-0.8 2.8-1.8 4.5-2.2 1.7-0.3 3.6-1.2 4.2-1.9 0.7-0.8 1.8-1.2 2.3-0.9 0.5 0.3 1.1 0.1 1.2-0.4 0.2-0.5 3.9-2.7 8.3-4.9 4.4-2.3 8.4-3.8 8.8-3.4 0.4 0.4 0.7 0.1 0.7-0.6 0-0.6 0.6-1.2 1.2-1.2 0.7 0 5.6-2.2 10.8-4.9 5.2-2.7 10.6-5.2 12-5.6 1.4-0.4 3.3-1.5 4.3-2.4 1-0.9 1.8-1.3 1.7-0.9 0 0.5 1.9-0.3 4.2-1.7 2.4-1.3 5.3-2.7 6.5-3 1.3-0.3 3.5-1.4 5-2.5 1.6-1.1 9-4.9 16.5-8.5 7.6-3.6 14-6.2 14.3-5.8 0.3 0.5 0.5 0.2 0.5-0.5 0-0.6 0.5-1.2 1-1.2 0.5 0 8.3-3.6 17.2-7.9 9-4.3 24.8-12 35.3-17 10.5-5.1 20-9.4 21.2-9.6 1.3-0.3 2.3-1 2.3-1.5 0-0.6 1.5-1.5 3.2-2 1.8-0.6 5.5-2.1 8.3-3.5 2.7-1.4 5.6-2.5 6.2-2.5 0.7 0 1.3-0.5 1.3-1 0-0.6 0.5-0.8 1-0.5 0.5 0.3 1 0.2 1-0.3-0.1-0.4 2.8-2 6.2-3.5 3.5-1.5 7-3.2 7.8-3.7 0.8-0.5 4-2.2 7-3.6 3-1.5 6.1-2.8 6.8-2.8 0.7-0.1 1.6-0.6 2-1.2 0.4-0.7 1.8-1.4 3.2-1.5 1.4-0.2 3.1-1 3.7-1.7 0.7-0.6 1.8-1 2.3-0.7 0.5 0.3 1 0.2 1-0.3 0-0.4 5-3.1 11.2-6.1 6.2-3 13.4-6.5 16-7.8 2.7-1.2 4.8-2 4.8-1.6-0.1 0.5 0.7 0.1 1.7-0.8 1-0.9 4-2.8 6.8-4.2 2.7-1.4 5.9-2.6 7-2.8 1.1-0.2 2.2-0.7 2.5-1 0.3-0.4 3.2-2 6.5-3.7 3.3-1.7 6.3-2.8 6.8-2.4 0.4 0.4 0.7 0.1 0.7-0.6 0-0.6 1.1-1.4 2.5-1.7 1.8-0.4 3.2 0.2 5 2 1.4 1.4 3.6 4.4 5 6.7 1.4 2.4 3 5.5 3.7 7.1 0.7 1.5 1.6 2.7 2 2.7 0.5 0 0.8 0.9 0.8 2 0 1.1 0.4 2.2 1 2.5 0.6 0.3 2.5 3.4 4.2 6.8 1.8 3.5 4.8 9.2 6.5 12.5 1.8 3.4 3 6.2 2.5 6.2-0.4 0-0.2 0.4 0.5 0.8 0.6 0.4 4.3 6.6 8.1 13.7 3.9 7.1 9.2 17.7 11.8 23.5 2.6 5.8 5.2 10.8 5.8 11.2 0.6 0.4 2.3 0.8 3.8 0.8 1.6 0 2.8-0.5 2.8-1 0-0.5 0.8-1 1.7-1 1.6-0.1 1.6-0.2 0.3-1.3-0.8-0.7-3.2-4.6-5.2-8.7-2-4.1-3.8-8.2-4-9-0.2-0.8-0.6-1.7-0.9-2-0.3-0.3-1.3-1.9-2.1-3.5-0.9-1.6-5.7-10.9-10.8-20.5-5.1-9.6-16.2-31.7-24.9-49-8.6-17.3-18-36.5-20.9-42.5-2.9-6.1-7.9-16.2-11.2-22.5-3.3-6.3-6-11.8-6-12.3 0-0.4-1.1-2.4-2.5-4.5-1.4-2-2.8-5.1-3.1-6.7-0.3-1.9 0-3.5 0.9-4.5 0.9-0.8 5.6-2.1 10.9-2.9 5.1-0.8 9.5-1.5 9.8-1.6 0.3-0.1 3-0.5 6-0.9 3-0.5 6.2-1 7-1.1 0.8-0.2 3.5-0.6 6-0.9 2.5-0.4 6.7-1 9.5-1.5 2.7-0.5 7-0.9 9.5-1zm-55.2 153.8c0.1 2 1.1 6.5 2.1 10.1 1.1 3.6 3.6 9.2 5.6 12.5 1.9 3.3 5.7 7.9 8.3 10.3 3.4 3.2 5.4 4.3 7.2 4 2.4-0.3 2.5-0.5 2.4-8.3 0-7-0.4-8.8-3.3-14.5-1.8-3.6-5.1-8.9-7.2-11.8-2.1-2.8-5.2-5.9-6.9-6.7-1.7-0.8-3.6-1.5-4.3-1.5-0.7 0-1.9 0.5-2.7 1.2-0.8 0.7-1.3 2.7-1.2 4.7zm-594.3 7.3c-1.7 0.9-4 2.7-5.1 4-1.2 1.2-2.9 3.8-3.8 5.5-1.1 2.2-1.9 8.2-2.6 18-0.5 8.2-1.7 31.7-2.5 52.3-1.4 34.2-1.4 37.6 0 39 0.9 0.8 3.9 1.8 6.8 2.2 2.9 0.5 20.7 1.1 39.7 1.4 20 0.4 49.2 0.2 69.5-0.5 28.1-0.9 36.1-1.5 40.4-2.9 3-0.9 7-3.1 9-4.8 2-1.7 4.7-5.3 6-8 2.4-4.9 2.4-5.1 1.8-24.9-0.4-11-1.4-30.2-2.2-42.8-0.8-12.5-2-24.7-2.5-27.2-0.6-2.5-1.6-5.7-2.4-7.3-0.7-1.5-3.1-3.6-5.2-4.7-3.8-1.9-5.9-2-66.4-2-34.4 0-65.9 0.2-70 0.5-4.1 0.3-8.8 1.3-10.5 2.2zm-160.5 4.9c-6.3 1.1-17.3 3.5-24.5 5.4-7.2 1.8-17.5 5-23 7-5.5 2.1-14.5 5.9-20 8.4-5.5 2.6-14.5 7.3-20 10.5-5.5 3.2-14.3 8.9-19.5 12.6-5.2 3.6-10.5 8.1-11.8 9.8-1.2 1.8-2.2 4.2-2.2 5.4 0 1.3 1.8 5 4 8.3 3.8 5.7 4.1 6.4 4 13.2 0 4.6-0.8 9.6-2 13.3-1.1 3.3-2.9 7.5-4 9.2-1.1 1.8-5.3 6.8-9.3 11.1-5.8 6.4-6.9 8.1-5.7 8.8 0.8 0.5 6 0.7 11.5 0.4 5.5-0.3 19.7-1 31.5-1.5 11.8-0.5 32.5-1.4 46-2 13.5-0.6 39.3-1.7 57.5-2.5 18.2-0.8 38-1.6 44-1.9 6-0.2 11.8-0.8 12.8-1.2 1-0.5 2.2-2.3 2.7-3.9 0.5-1.7 2.5-15.2 4.5-30 1.9-14.9 4.8-37.6 6.4-50.5 2.9-23 2.9-23.6 1.1-26.5-1-1.7-2.8-3.9-4-5-2.1-1.9-3.7-2-29.4-2.2-14.9 0-29.8 0.3-33.1 0.8-3.3 0.5-11.2 1.8-17.5 3zm672 26.1c-18.4 8.8-45.2 21.7-59.5 28.6-14.3 6.8-29.6 14.1-34 16.2-4.4 2.1-21.3 10.3-37.5 18.2-18.9 9.3-29.8 15.2-30.3 16.4-0.4 1.1-0.3 2.3 0.3 2.9q1 1 11.3-0.3c5.6-0.7 24.4-1.7 41.7-2.2 17.3-0.5 35.1-1.2 39.5-1.5 4.9-0.4 11.3-1.8 16.5-3.6 4.7-1.6 12.3-5.1 17-7.8 4.7-2.6 32.6-16.7 62-31.3 29.4-14.5 54.2-27.2 55-28.2 1.4-1.7 1.1-2.7-3.2-11-2.6-5-7-12.8-9.8-17.4-3.3-5.4-5.6-8.2-6.8-8.2-1 0-7.9 3-15.3 6.6-7.4 3.6-28.5 13.8-46.9 22.6zm118.5 30.5c-0.3 1 0.2 4 1 6.8 0.9 2.7 4.9 11.5 8.9 19.5 4 8 10.6 20.3 14.6 27.5 4 7.1 8.8 15.5 10.7 18.5 2 3 4.5 6.5 5.7 7.8 1.3 1.4 3.2 2.2 5.1 2.2 1.7 0 5-1 7.4-2.3 2.5-1.2 5.3-3.2 6.3-4.5 1.5-1.9 1.6-2.7 0.7-5.5-0.7-1.7-3.6-8.4-6.6-14.7-3-6.3-7.1-13.8-9.2-16.5-2.1-2.8-7.9-9.5-13-15-5.1-5.5-11.5-13.5-14.4-17.8-3.7-5.6-6.1-8.1-8.2-8.8-1.7-0.5-3.2-0.9-3.5-0.9-0.3 0.1-1.5 0.5-2.8 1.1-1.2 0.5-2.4 1.7-2.7 2.6zm83 83.2c7.4 11.7 10.3 15.5 11.2 16 1.1 0.5 2.8 0.5 4 0 1.3-0.5 2.6-1.7 2.9-2.7 0.4-0.9 0.3-3.3 0-5.2-0.5-2.4-2.4-5-5.9-8.3-2.9-2.6-5.7-4.8-6.3-4.7-0.6 0-2.2 1.1-3.5 2.5zm-1258.5 97.6c3 0.4 8.2 0.8 11.5 0.9 3.3 0.1 8.6 1.1 11.8 2.1 3.2 1.1 5.8 2.3 5.7 2.7 0 0.4 0.8 0.5 1.8 0.2 1-0.3 6.4 1.8 13 5 6.2 3 11.4 6.2 11.7 7 0.3 0.9 1.2 1.5 2 1.5 0.8 0 1.9 0.9 2.4 2 0.5 1.1 1.5 2 2.3 2 0.7 0 4.3 3 8 6.8 3.7 3.7 6.7 7.1 6.8 7.5 0 0.4 1.2 2 2.6 3.5 1.4 1.5 3.7 4.8 5.2 7.2 1.4 2.5 3.1 5.2 3.9 6 0.7 0.9 2.8 5.5 4.8 10.3 1.9 4.8 3.2 8.7 2.8 8.7-0.4 0-0.1 0.7 0.7 1.5 0.8 0.9 1.1 1.6 0.5 1.5-0.6 0-0.5 0.5 0.1 1.2 0.7 0.8 1.9 3.8 2.7 6.8 0.8 3.1 1.8 7.3 2.2 9.5 0.4 2.2 0.7 11.5 0.6 20.5 0 9.1-0.5 18.1-1.1 20-0.6 2-1.4 4.2-1.7 5-0.3 0.9-0.7 1.8-0.8 2-0.1 0.3-0.5 1.9-0.9 3.5-0.5 1.7-2.8 6.6-5.1 11-2.4 4.4-6.9 11-10.1 14.7-3.3 3.6-8.7 9-12 12-3.4 2.9-8.1 6.9-10.5 8.8-2.4 2-5.7 4.2-7.4 5.1-1.6 0.8-4.8 2.7-7 4.2-2.2 1.4-5.3 3-6.9 3.4-1.5 0.5-3 1.2-3.2 1.6-0.2 0.4 2.4 1.6 5.9 2.6 5.6 1.7 9.4 1.8 37.2 1.6 17.1-0.1 166.9-0.5 333-0.8 166.1-0.4 310.4-0.8 320.7-0.9 10.2-0.2 19-0.6 19.5-1 0.4-0.4 0.3-2-0.4-3.5-0.7-1.5-2.8-3.5-4.5-4.4-1.8-0.9-5.3-2.4-7.8-3.3-2.5-0.9-7-3.6-10-5.9-3-2.3-6-5.5-6.7-7-0.7-1.4-1.8-2.7-2.5-2.7-0.7 0-3.6-2.8-6.4-6.2-2.8-3.5-6.6-9-8.5-12.3-1.9-3.3-4.7-8.7-6.1-12-1.5-3.3-2.7-6.6-2.8-7.5 0-0.8-0.7-3.4-1.5-5.7-0.8-2.4-1.3-4.7-1-5.3 0.3-0.5 0.1-1.5-0.5-2.2-0.6-0.7-1-8.2-1.1-17.3 0-8.8 0.4-17.8 1-20 0.5-2.2 1.3-6 1.7-8.5 0.3-2.4 1.5-6.9 2.6-10 1.1-3 3.1-8.4 4.5-12 1.4-3.5 3.1-6.9 3.8-7.5 0.7-0.5 1.5-2 1.9-3.2 0.3-1.3 1.1-2.3 1.6-2.3 0.6 0 0.8-0.4 0.5-1-0.3-0.5 0.9-2.3 2.5-4 1.7-1.6 2.8-3 2.5-3-0.3 0 3-3.5 7.3-7.8 4.2-4.3 10-9.3 12.7-11.2 2.8-1.9 5.4-3.3 5.8-3.2 0.4 0.1 0.7-0.2 0.7-0.8 0-0.5 3.7-2.7 8.3-4.8 4.5-2.2 9.9-4.4 12-5 2-0.7 3.9-1.1 4.1-0.9 0.2 0.1 0.9-0.3 1.7-1 0.8-0.6 3-1.3 4.9-1.6 1.9-0.2 4.2-0.7 5-1.2 0.8-0.4 3.8-1 6.5-1.2 2.8-0.3 10-0.5 16-0.5 6.1 0 13.3 0.3 16 0.6 2.8 0.4 6.5 0.9 8.3 1.2 1.8 0.2 3.2 0.9 3.2 1.4 0 0.6 0.6 0.8 1.3 0.4 0.7-0.3 3.8 0.4 7 1.5 3.1 1.2 9.7 4.2 14.5 6.7 4.8 2.4 9.5 5.4 10.5 6.5 0.9 1 1.9 1.8 2.2 1.7 0.2-0.2 1.4 0.5 2.5 1.5 1.1 0.9 2 1.4 2 1 0-0.4 2.9 2.2 6.4 5.7 3.6 3.6 6.6 6.9 6.6 7.3 0 0.4 0.8 1.7 1.8 2.8 0.9 1.2 2.5 3.1 3.5 4.3 1 1.2 3.8 5.3 6.2 9.1 2.4 3.9 6.2 11.8 8.4 17.5 2.2 5.8 4.2 11.7 4.5 13 0.2 1.4 0.7 3.2 1 4 0.3 0.9 0.9 2.9 1.3 4.5 0.3 1.7 0.7 10 0.8 18.5 0.1 10.8-0.3 17.1-1.2 20.5-0.8 2.8-1.7 6.2-2 7.5-0.3 1.4-1.1 3.2-1.8 4-0.6 0.9-1.8 3.8-2.6 6.5-0.8 2.7-2.8 6.9-4.6 9.3-1.8 2.3-3.3 4.5-3.3 4.7 0 0.3-1.8 3.1-3.9 6.3-2.2 3.1-8.2 9.9-13.3 14.9-6.5 6.4-10.9 9.9-14.8 11.6-3 1.3-6.9 3.9-8.5 5.8-1.7 1.9-3.3 4-3.5 4.7-0.4 1-3.2 1.3-11 1.3-6.6 0-10.1 0.3-9.5 0.9 0.6 0.5 10.9 1.2 23 1.5 12.1 0.3 23.6 0.8 25.5 1 1.9 0.3 25.3 0.7 52 1 26.7 0.3 51.1 0.9 54.3 1.3 3.3 0.4 6.1 0.4 6.3 0 0.2-0.4 1.4-0.8 2.7-0.8 1.2 0 3.1 0.9 4.2 2 1.7 1.7 1.8 2.3 0.7 3.3-0.8 0.8-4.9 1.3-10.5 1.4-5 0.2-13.2 0.5-18.2 0.8-4.9 0.4-19.3 0.8-32 0.9-17.8 0.3-23.2 0-24-1-0.5-0.7-2.3-1.5-4-1.9-2.8-0.6-2.9-0.5-1 0.9 2 1.5 2 1.5-0.5 2.2-1.4 0.3-6.3 0.5-11 0.4-4.7-0.2-36.4 0-70.5 0.4-34.1 0.3-106.8 0.9-161.5 1.3-54.7 0.4-192.9 0.6-307 0.5-114.1-0.1-231.3-0.4-260.5-0.7-29.1-0.2-66.5-0.6-83-0.9-16.5-0.3-39.9-0.7-52-1-12.1-0.3-27.4-0.8-34-1-6.6-0.3-17.8-0.7-25-0.9-7.1-0.1-17-0.5-22-0.8-4.9-0.2-9.7-0.8-10.5-1.3-1.3-0.7-1.3-0.9 0-1.6 0.8-0.4 5.6-0.7 10.5-0.5 5 0.1 9.5-0.1 10-0.6 0.6-0.4 4.8-1 9.5-1.3 4.7-0.3 14.6-1.2 22-2 7.4-0.8 16.4-1.7 20-2 3.6-0.2 7.9-0.5 9.5-0.5 2.9-0.1 2.8-0.2-2-2.9-2.7-1.5-9-5.5-14-8.9-4.9-3.3-11.9-9-15.5-12.4-3.6-3.5-8.6-8.9-11.3-11.9-2.6-3-6.5-8.8-8.6-13-2.2-4.1-5.4-11.7-7.1-17-2.9-8.7-3.2-10.9-3.7-26-0.4-12.6-0.2-18.7 1.1-26.2 0.9-5.4 2.6-12.4 3.7-15.5 1.1-3.2 2.3-6.4 2.6-7.3 0.4-0.8 0.8-2.1 0.9-3 0.2-0.8 2.2-4.8 4.4-9 2.1-4.1 5-8.7 6.2-10.1 1.3-1.5 3.4-4.1 4.8-5.9 1.4-1.7 5.5-6.3 9.1-10.1 3.6-3.8 7.1-6.9 7.7-6.9 0.7 0 1.2-0.3 1.2-0.7 0-0.4 1.5-1.6 3.3-2.7 1.8-1.1 3.6-1.8 4-1.7 0.4 0.1 0.7-0.3 0.7-0.9 0-0.5 4.2-3 9.3-5.4 5.1-2.4 13.4-5.6 18.5-7 5.2-1.4 13-2.8 17.9-3 4.8-0.3 8.9-0.7 9.2-1.1 0.4-0.3 3.1-0.3 6.1 0.1zm-28 62.4c-3.8 1.9-9 5.9-12.6 9.4-3.3 3.4-7.4 8.8-9.1 12.1-1.7 3.3-3.8 8.5-4.7 11.5-0.9 3.1-1.6 9-1.6 13.5 0 6.1 0.7 10 2.8 16 1.5 4.4 4.6 10.5 6.7 13.5 2.2 2.9 5.9 7 8.1 9 2.3 1.9 6.8 5 10 6.7 3.3 1.8 8.6 3.9 11.9 4.8 3.3 0.8 8.9 1.5 12.5 1.6 3.6 0 9-0.8 12-1.6 3-0.9 8.7-3.3 12.5-5.3 3.8-2 9.2-5.9 12-8.7 2.8-2.7 6.7-8.1 8.7-12 2-3.8 4.3-9.4 5.2-12.5 0.9-3 1.6-8.4 1.6-12 0-3.5-0.7-9.2-1.5-12.5-0.9-3.3-3-8.7-4.8-12-1.7-3.3-6.1-8.9-9.6-12.5-3.7-3.7-9-7.7-12.1-9.2-3-1.5-8.2-3.4-11.5-4.2-3.3-0.9-9.6-1.5-14-1.5-4.4 0-9.8 0.6-12 1.3-2.2 0.7-6.9 2.8-10.5 4.6zm802 1.2c-2.5 1.4-7.1 5.3-10.3 8.5-3.1 3.2-7 8.3-8.6 11.3-1.6 3.1-3.6 8-4.5 11-0.9 3.1-1.6 9.1-1.6 13.5q0 8.1 2.1 15c1.2 3.9 3.6 9.5 5.5 12.5 1.8 3.1 5.2 7.4 7.6 9.7 2.4 2.3 6.8 5.7 9.8 7.6 3 1.9 8 4.3 11 5.3 4.1 1.5 8.2 1.9 16 1.9 8.5-0.1 11.6-0.5 16.5-2.4 3.3-1.3 8.3-3.8 11-5.6 2.8-1.7 6.8-4.9 8.9-7.1 2.1-2.1 5.3-6.1 7.1-8.9 1.8-2.7 4.3-7.7 5.6-11 1.9-4.8 2.3-7.9 2.4-16.5 0-7.8-0.5-11.8-1.9-16-1-3-3.7-8.4-6-11.9-2.2-3.5-6.6-8.6-9.6-11.3-3-2.6-8.2-6.1-11.5-7.7-3.3-1.6-8-3.4-10.5-4-2.5-0.5-8.5-1-13.5-1-6.8 0-10.5 0.6-15 2.3-3.3 1.2-8 3.4-10.5 4.8zm392.9-22.1l211.1-0.1 0.9 2.3c0.5 1.2 0.8 4.7 0.7 7.7-0.2 4.7-0.6 5.7-2.7 6.7-1.8 0.9-27.5 1.2-106.6 1-84.5-0.1-104.4-0.4-105.5-1.5-0.7-0.7-1.5-3.6-1.7-6.5-0.3-4.2 0-5.6 1.7-7.4zm310.6 57.7l3 2.7c2.2 2 3.1 3.8 3.3 6.7 0.1 3-0.4 4.4-2.3 6.3-1.4 1.4-2.5 3-2.5 3.5 0 0.7-70.7 0.9-211.2 0.5-116.2-0.2-213.9-0.5-217-0.5-3.2 0-6.7-0.4-7.8-1-1.1-0.5-2.7-2.3-3.5-4-1.2-2.3-1.3-3.8-0.5-7 0.6-2.2 2-4.7 3.3-5.7 2.2-1.7 14.1-1.7 435.2-1.5zm-154 62.7l2 2.3c1.1 1.2 2.1 3.8 2.3 5.7 0.1 2.6-0.5 4.4-4.8 9.5l-111.7-0.5c-94.6-0.5-112.1-0.8-114-2-1.3-0.8-2.8-2.5-3.4-3.7-0.6-1.2-0.9-3.2-0.6-4.3 0.3-1.1 1.4-2.9 2.5-4.1 1.2-1.4 3.4-2.3 5.8-2.5 2.2-0.2 53-0.4 221.9-0.4zm-1728.3 122.2c6.8 0.1 18.6 0.4 26.3 0.7 7.7 0.3 18.3 0.9 23.5 1.2 5.2 0.4 9.8 0.8 10.3 1 0.4 0.3 2.6 0.6 5 0.9 2.3 0.2 6.9 1.3 10.2 2.5 3.3 1.2 8 3.4 10.5 5 2.5 1.6 6.1 4.7 8.1 6.7 2 2.1 4.8 5.4 6.2 7.3 1.5 2 2.4 3.9 2 4.3-0.3 0.4-0.2 0.7 0.3 0.7 0.5 0 1.6 1.5 2.4 3.3 0.8 1.8 1.5 3.5 1.5 3.7 0.1 0.3 0.9 2.1 1.9 4 1 2 2 4.4 2.1 5.5 0.1 1.1 0.8 3.4 1.5 5 0.7 1.8 1.5 9 1.8 17q0.4 14.1-0.9 19.5c-0.7 3.1-1.7 6.4-2.3 7.5-0.6 1.1-1.1 2.3-1.1 2.5 0 0.3-1.6 3.5-3.5 7-2 3.7-6.8 10-18.5 22.1l5.5 5.6c3 3 9.6 8.8 14.5 12.8 5 3.9 10.6 9.2 12.6 11.6 2 2.5 4.1 5.5 4.8 6.7 0.6 1.2 1.1 3.7 1.1 5.5 0 1.8-1 4.8-2.3 6.7-1.2 2-3.8 4.6-5.7 5.8-1.9 1.3-5.1 2.7-7 3.2-1.9 0.5-7.2 0.7-11.7 0.5-4.6-0.3-8.7-0.7-9.3-1-0.5-0.2-3.8-0.6-7.2-0.7-4.3-0.2-8-1.1-11.8-3-3-1.4-6.6-3.5-8-4.5-1.4-1.1-5.5-6.2-9.2-11.3-3.6-5.2-9.2-11.8-12.2-14.7-3.1-2.9-5.6-5-5.6-4.8 0 0.3-1.2-0.2-2.7-1.2-1.5-1-3.2-1.8-3.8-1.9-0.5-0.1-3.5-0.8-6.5-1.7-3-0.9-8.3-1.8-11.8-1.9-3.5-0.1-6.6 0.1-6.8 0.5-0.2 0.4-1.9 0.7-3.6 0.6-1.8-0.1-4.3 0.3-5.5 1-1.3 0.6-5 1.1-8.3 1.1-4.2 0-7.4-0.6-10.7-2.2-2.6-1.2-5.6-3.5-6.7-5-1.5-2-2.3-2.4-2.8-1.5-0.4 0.7-0.8 10.2-0.8 21.2 0 18.3-0.2 20.3-2 23.3-1.3 2.1-4 4.1-7.7 5.9-3.2 1.4-6.6 2.3-7.5 2-1-0.4-2-0.2-2.3 0.3-0.3 0.6-3.5 0.9-7.7 0.7-4-0.3-9-1.2-11-2-2.1-0.9-3.8-2.1-3.8-2.7 0-0.5-0.4-0.7-1-0.5-0.5 0.3-2-0.8-3.2-2.5-1.3-1.7-2.1-3.4-2-3.8 0.2-0.4-0.1-0.9-0.7-1.2-0.6-0.2-1.3-1.1-1.4-2-0.1-0.8-0.6-2.1-1.1-3-0.5-0.8-0.6-18.4-0.2-40 0.3-21.1 0.9-55.1 1.2-75.5 0.4-23.8 1-37.7 1.7-39 0.6-1.1 1.2-2.2 1.2-2.5 0-0.2 0.6-1.5 1.3-2.7 0.7-1.2 3.1-3.3 5.5-4.7 3.8-2.2 5.6-2.5 20.7-3 9.1-0.3 22.1-0.8 29-1.1 6.8-0.2 12.5-0.6 12.7-0.7 0.1-0.2 5.7-0.2 12.5-0.1zm-33.2 101.3c5-4.2 8.1-6.1 10-6.9 3-1.2 7.1-1.2 27.5-0.2 13.2 0.6 27.6 1.2 32 1.2 4.4 0 10.3-0.7 13-1.5 2.8-0.8 6-2.5 7.1-3.7 1.2-1.3 2.7-3.5 3.4-4.9 0.7-1.3 1.5-5.8 1.8-10 0.4-5.5 0.1-8.6-1.1-12-0.9-2.4-2.7-5.4-3.9-6.7-1.3-1.2-4.3-2.9-6.8-3.7-3.8-1.3-10.6-1.6-43.7-1.6h-39.3zm297.2-102c4.6 0 8 0.6 10.6 1.9 2 1 5.7 4.1 8.2 6.8 2.5 2.8 5.4 6.8 6.5 8.9 1.1 2.2 2.3 4.1 2.8 4.2 0.4 0.1 0.7 0.8 0.7 1.5-0.1 0.7 0.6 1.8 1.5 2.5 0.8 0.7 1.3 1.7 1 2.2-0.3 0.6-0.2 1 0.3 1 0.4 0 1.3 1.1 2 2.5 0.6 1.4 1.2 2.9 1.1 3.3 0 0.4 0.3 1 0.8 1.2 0.4 0.3 2.2 2.5 3.8 5 1.7 2.4 3.5 5.3 4.2 6.5 0.7 1.1 1.5 2.7 1.9 3.5 0.4 0.9 1.6 2.6 2.8 3.8 1.2 1.3 1.7 2.3 1.1 2.3-0.6 0-0.6 0.3 0.1 0.7 0.6 0.4 2.7 3.4 4.7 6.7 2 3.3 3.7 6.5 3.7 7 0 0.6 0.8 1.9 1.8 2.9 0.9 1 2.9 3.9 4.4 6.5 1.5 2.6 3.3 5.8 4 7.1 0.7 1.4 1.6 3 2.1 3.5 0.4 0.6 1.8 2.6 3 4.5 1.3 2 3.4 5.6 4.8 8 1.3 2.5 2.6 4.8 2.9 5 0.3 0.3 1.3 1.8 2.3 3.3 0.9 1.5 1.4 2.8 1 2.8-0.5 0 0 0.4 1 1 0.9 0.5 1.5 1.4 1.2 1.9-0.3 0.6 0 1 0.5 1 0.6 0 1.3 1.1 1.7 2.3 0.3 1.2 1.1 2.8 1.7 3.4 0.6 0.7 2.7 3.8 4.6 7 1.9 3.1 3.4 5.9 3.3 6-0.2 0.2 0.5 1.2 1.5 2.2 0.9 1 2.6 3.4 3.6 5.2 1.1 1.9 1.9 3.8 1.8 4.2-0.1 0.4 0.3 0.7 0.8 0.7 0.6 0 2.7 3.5 4.9 7.8 2.9 5.8 3.9 9.1 4 13 0 2.9-0.6 6.6-1.4 8.2-0.8 1.7-3.3 3.9-5.5 5-2.2 1.1-4.6 1.9-5.2 1.7-0.7-0.2-2 0.4-2.8 1.2-1.2 1.1-3.5 1.3-10.5 1-4.9-0.3-9.7-0.9-10.5-1.4-0.8-0.5-1.9-1-2.5-1-0.5-0.1-2.6-0.9-4.5-1.8-1.9-0.9-5.4-3.2-7.7-5.1-2.4-2-4.2-3.8-4-4.1 0.1-0.2-1.5-2.4-3.5-4.7-2.1-2.3-3.5-4.6-3.3-5 0.3-0.4 0.2-0.7-0.2-0.7-0.5 0-1.4-1.1-2-2.5-0.7-1.4-1.4-2.9-1.4-3.3-0.1-0.4-1.4-2.3-3-4.3-1.5-1.9-2.6-3.8-2.4-4.2 0.3-0.4-0.7-1.2-2.2-1.7-1.6-0.5-17.4-1.1-35.3-1.3-27.9-0.4-33-0.6-35.7-2.1-1.8-0.9-4.5-3.2-8.8-8.5l-5.5 9.1c-3 5.1-5.5 9.4-5.5 9.7-0.1 0.3-0.8 2-1.8 3.8-0.9 1.8-2.1 3.2-2.7 3.2-0.5 0-0.8 0.5-0.5 1 0.3 0.6-0.3 1.8-1.2 2.7-1 1-1.9 2.4-2 3.3-0.1 0.8-3.2 4.5-7 8.1-5 4.8-8.2 7-12.3 8.4-3.7 1.3-8.2 1.9-14 1.8-5.5 0-9.8-0.6-12.2-1.6-2.1-0.9-3.8-2.1-3.8-2.7 0-0.5-0.3-0.7-0.7-0.5-0.5 0.3-1.9-0.6-3.3-2-1.4-1.4-2.2-2.5-1.7-2.5 0.4 0 0-0.6-0.8-1.5-0.8-0.8-1.5-3.2-1.5-5.5 0-2.2 0.7-5.8 1.5-8 0.8-2.2 2-4 2.5-4 0.6 0 0.8-0.3 0.5-0.7-0.2-0.4 0.7-2.1 2.2-3.8 1.5-1.6 2.6-3.1 2.5-3.2-0.1-0.1 1-2.5 2.6-5.3 1.5-2.7 3-5 3.5-5 0.4 0 0.5-0.3 0.2-0.7-0.2-0.4 0.6-1.9 1.8-3.2 1.2-1.4 2.1-2.7 1.9-3-0.1-0.3 0.6-1.5 1.5-2.6 0.9-1.1 1.6-2.2 1.5-2.5-0.1-0.2 0.6-1.4 1.5-2.5 0.9-1.1 1.5-2 1.3-2.2-0.3-0.1 0.4-1.2 1.5-2.5 1-1.2 1.7-2.3 1.5-2.5-0.3-0.1 0.4-1.2 1.5-2.5 1-1.2 1.7-2.3 1.5-2.5-0.3-0.1 0.2-1 1-2 0.9-0.9 1.5-2.1 1.5-2.5 0-0.4 0.8-1.6 1.8-2.7 0.9-1.1 1.5-2.1 1.2-2.1-0.3 0 0.3-1.2 1.2-2.7 0.9-1.5 2.6-3.8 3.7-5.1 1.2-1.3 1.9-2.4 1.7-2.5-0.3-0.1 0.4-1.6 1.5-3.4 1-1.8 2.2-3.3 2.7-3.3 0.4 0 0.5-0.3 0.2-0.7-0.2-0.4 0.4-1.7 1.3-2.8 1-1.1 1.9-2.4 2-3 0.1-0.5 1-1.9 1.9-3 0.9-1.1 1.5-2 1.3-2.2-0.3-0.1 0.4-1.2 1.5-2.5 1-1.2 1.7-2.3 1.5-2.5-0.3-0.1 0.4-1.2 1.5-2.5 1-1.2 1.8-2.5 1.7-2.8-0.1-0.2 0.6-1.4 1.5-2.5 0.9-1.1 1.5-2 1.3-2.2-0.3-0.1 0.2-1 1-2 0.9-0.9 1.7-2.2 1.9-2.8 0.1-0.5 1.6-3.4 3.4-6.5 1.7-3 3.6-5.8 4.1-6.2 0.7-0.4 0.7-0.7 0.1-0.7-0.5 0 0.2-1.4 1.6-3.3 1.4-1.8 3.9-5.6 5.5-8.5 1.6-2.9 3.2-5.3 3.7-5.3 0.4 0 0.5-0.3 0.3-0.7-0.3-0.4 0.6-2 2-3.5 1.3-1.5 2.2-2.9 1.9-3-0.2-0.1 1.9-3.4 4.8-7.2 3.5-4.6 6.7-7.7 9.7-9.2 3.3-1.8 6.1-2.4 11.2-2.4zm-5.2 80.8c-1.9 3.1-3.7 6.2-3.9 6.7-0.2 0.6-1.5 2.8-2.9 5-1.4 2.2-3.3 5.5-4.4 7.3-1 1.8-1.8 3.5-1.8 3.7 0 0.3 2.1-0.4 4.8-1.6 3.4-1.6 7.5-2.3 15-2.8 5.6-0.3 10.2-0.8 10.2-1.1 0-0.2-2.5-4.3-5.4-9-3-4.6-6-9.7-6.8-11.2l-1.4-2.7zm317.1-80.4c6.7 0.4 9.6 1 14 3.3 3.9 2.1 6.1 4 7.6 6.9 1.8 3.1 2.2 5.7 2.3 12.9 0.1 6.9-0.4 10.3-1.9 14.3-1.1 2.9-2.5 5.2-3 5.2-0.6 0-0.8 0.5-0.5 1 0.2 0.6-0.6 2-2 3.3-1.3 1.2-2.6 2-2.9 1.7-0.2-0.3-1.4 0.4-2.7 1.5-1.7 1.6-3.8 2.1-10.3 2.2-4.5 0.2-30.5 0.5-57.7 0.7-48.3 0.5-49.7 0.6-52 2.6-1.7 1.5-2.4 3.1-2.4 5.5 0 2.3 0.7 4.3 2.2 5.7 2.3 2.3 2.4 2.3 35.5 2.5 18.3 0.2 39.3 0.5 46.8 0.8 7.4 0.2 16.2 1.1 19.5 1.9 3.3 0.8 7.8 2.3 10 3.3 2.2 1 6.8 3.8 10.3 6.3 3.5 2.5 8.1 6.9 10.3 9.8 2.1 2.9 3.5 5.2 3.1 5.2-0.4 0-0.2 0.4 0.5 0.8 0.6 0.4 2.1 3.3 3.2 6.5 1.8 4.9 2.1 8.2 2.1 22.2 0 12.5-0.4 16.8-1.4 17.8-0.7 0.7-1.1 1.9-0.9 2.7 0.3 0.8-0.3 3.4-1.1 5.8-0.9 2.3-2.1 4.2-2.6 4.2-0.6 0-0.9 0.4-0.8 0.8 0.1 0.4-0.8 2.4-2 4.5-1.2 2-2.7 3.7-3.2 3.7-0.6 0-0.8 0.4-0.6 0.8 0.3 0.4-0.7 1.9-2.2 3.3-1.5 1.4-4.3 3.7-6.2 5.2-2 1.4-3.9 2.3-4.3 1.9-0.4-0.4-0.8-0.2-0.7 0.3 0 0.6-1.2 1.6-2.8 2.4-1.5 0.7-5.2 2.1-8.2 3.1-3.1 1-8.2 2.1-11.5 2.4-3.3 0.4-16.4 0.9-29 1.1-12.7 0.2-41 0.8-63 1.1-36.1 0.7-40.4 0.6-43.3-0.9-1.8-0.9-3.2-2.2-3.2-2.9 0-0.7-0.3-0.9-0.8-0.5-0.4 0.4-1.5-0.1-2.5-1-0.9-1-1.5-2.1-1.2-2.5 0.2-0.4 0-0.8-0.5-0.8-0.6 0-2-1.9-3.1-4.2-1.6-3.4-1.9-5.7-1.6-11.3 0.3-3.8 1-8.3 1.7-10 0.7-1.6 1.4-3.7 1.6-4.5 0.2-0.8 0.9-1.8 1.6-2.2 0.7-0.4 0.9-0.8 0.5-0.8-0.4 0 0.3-1.4 1.5-3.2 1.2-1.7 4.2-4 6.5-5 3.7-1.5 6-1.7 18-1.1 7.6 0.4 25.7 0.7 40.3 0.6 14.5 0 31.2-0.3 37-0.7 5.7-0.3 14.3-1.1 19-1.6 4.6-0.6 10.1-1.5 12.2-2 2.1-0.5 4.4-2 5.3-3.2 0.8-1.3 1.5-2.7 1.5-3.3 0-0.5-1.2-2.6-2.8-4.5-1.5-1.9-3.6-3.6-4.7-3.7-1.1-0.2-5.6-0.5-10-0.8-4.4-0.3-13.7-0.7-20.5-0.9-6.9-0.2-12.8-0.4-13-0.5-0.3 0-11.1-0.3-24-0.5-13-0.3-26.2-1-29.5-1.6-3.3-0.7-6.5-1.4-7-1.8-0.6-0.3-1.7-0.7-2.5-0.9-0.9-0.1-1.8-0.7-2-1.3-0.3-0.6-0.8-1-1-0.8-0.3 0.1-2.7-1.2-5.3-3-2.6-1.7-4.7-3.6-4.7-4.2 0-0.5-0.4-0.8-0.8-0.5-0.4 0.3-1.6-0.4-2.7-1.5-1.1-1.1-1.7-2-1.3-2 0.4 0-0.4-1.2-1.9-2.7-1.4-1.5-3.7-5.3-5.1-8.3-1.4-3-2.5-5.9-2.6-6.5-0.1-0.5-0.5-1.4-0.8-2-0.4-0.5-1.1-3.5-1.6-6.5-0.6-3-0.8-10.9-0.6-17.5 0.2-6.6 0.7-12.7 1-13.5 0.4-0.8 0.8-2.2 1-3 0.1-0.8 0.9-2.7 1.6-4.3 0.7-1.5 1.6-2.7 2-2.7 0.4 0 0.6-0.3 0.4-0.7-0.2-0.4 1.2-3.2 3.2-6.2 2-3 5.9-7.2 8.7-9.3 2.7-2.1 8.4-5.2 12.5-6.8 4.2-1.7 8.5-3 9.5-2.9 1.1 0.1 2.6 0 3.5-0.4 0.8-0.3 6.6-1 13-1.6 6.3-0.5 22.9-1 37-1 14-0.1 33.1-0.4 42.4-0.7 9.4-0.2 17.3-0.7 17.5-1 0.3-0.3 4.4-0.3 9.1 0zm227-0.2c7.6 0.3 9.2 0.7 13.5 3.4 2.9 1.8 5.9 4.6 7.2 7 1.2 2.1 2.2 4.8 2.2 5.9-0.1 1.1 0.3 37.3 0.6 80.5 0.7 73.6 0.7 78.6-1 80.3-0.9 0.9-1.3 1.7-0.9 1.7 0.5 0-0.3 1.1-1.6 2.5-1.4 1.3-2.9 2.3-3.3 2-0.4-0.3-1 0.2-1.2 1-0.3 0.8-2.2 1.9-4.3 2.4-2.1 0.5-8 0.8-13.2 0.6-8.3-0.2-10.2-0.6-14.9-3.1-2.9-1.6-5.9-3.9-6.7-5.1-0.8-1.3-1.1-2.3-0.7-2.2 0.4 0 0.2-0.6-0.5-1.3-1-1-1.3-7.5-1-29.7 0.2-18.3-0.1-28.5-0.7-28.7-0.6-0.1-16.3-0.4-35-0.6-25.6-0.3-34.7-0.7-36.5-1.7-1.4-0.7-3.8-2.5-8.1-6.6l-0.1 13.5c-0.1 7.4-0.2 22.5-0.3 33.5-0.1 17.7-0.4 20.5-2.1 23.8-1.2 2.3-3.2 4.4-5.2 5.3-2.4 1-7.4 1.4-18.7 1.4-9.4 0-15.7-0.4-16-1-0.3-0.5-1-0.8-1.5-0.5-0.6 0.3-2.1-0.6-3.3-1.9-1.2-1.4-2.2-2.8-2.1-3.3 0.1-0.4-0.3-1.4-1-2.2-0.8-1-1.2-22.5-1.4-82-0.3-61.1 0-81.3 0.9-83.6 0.6-1.6 1.9-3.8 2.8-4.8 0.8-1.1 3.1-2.7 5.1-3.7 2.8-1.5 5.9-1.8 16.5-1.8 7.1 0 13.4 0.3 14 0.6 0.5 0.4 1.4 0.7 2 0.8 0.5 0.1 2.3 1 3.8 2 1.6 1.1 3.5 3 4.2 4.4 0.7 1.4 1.4 3.4 1.4 4.5 0.1 1.1 0.1 16.3 0.1 33.8 0 17.4 0.3 31.7 0.7 31.8 0.4 0 1.2-1.1 1.8-2.4 0.6-1.4 3-3.3 5.5-4.5 4-1.9 6.5-2.1 26-2.2 11.8-0.1 27-0.4 45.9-1.5l-0.2-4.5c-0.1-2.5 0.1-14.5 0.5-26.7 0.5-15.6 1.2-23.1 2.1-25 0.8-1.5 2.9-4.1 4.8-5.7 1.8-1.6 5.2-3.7 7.4-4.8 3.1-1.4 5.8-1.8 12.5-1.6zm330.9-0.2c1.9 0 5.1 0.5 7.1 1 1.9 0.5 5 2 7 3.3 1.9 1.3 4.4 4.1 5.6 6.3 1.9 3.4 2.2 5.6 2.3 15.9 0 6.6-0.4 13.5-0.9 15.3-0.6 1.8-1.5 3.2-2 3.2-0.6 0-0.8 0.5-0.5 1 0.2 0.6-0.9 2-2.6 3.3-1.7 1.2-3.5 2.3-4 2.5-0.5 0.1-1.3 0.3-1.7 0.4-0.4 0.1-25.5 0.2-55.7 0.2-49 0.1-55.6 0.3-60 1.8-2.8 1-6.2 2.9-10 6.8l3 3.1c1.6 1.7 3.9 3.5 5 3.9 1.1 0.5 7.6 1.1 14.5 1.4 6.8 0.3 26 0.8 42.5 1.1 16.5 0.4 32.7 1 36 1.5 3.3 0.6 8.7 1.9 12 3 3.3 1.1 8.7 3.7 12 5.7 3.3 2 7 4.6 8.3 5.7 1.3 1.2 3.7 3.9 5.2 6.1 1.6 2.2 2.6 4.4 2.3 4.8-0.4 0.4-0.1 0.7 0.5 0.7 0.6 0 1.8 1.8 2.7 4 0.8 2.2 1.2 4.5 1 5-0.3 0.6-0.1 1.2 0.5 1.5 0.6 0.3 1 6.2 1 14.5 0 8.4-0.4 14.2-1 14.5-0.6 0.3-0.8 1.3-0.5 2.3 0.3 0.9 0 3.1-0.6 4.7-0.7 1.7-1.2 3.6-1.1 4.3 0.1 0.7-0.6 2.7-1.5 4.5-1 1.8-1.8 3.4-1.9 3.7-0.1 0.3-0.6 1.6-1.2 3-0.6 1.4-2 3.5-3.1 4.8-1.2 1.2-1.8 2.2-1.4 2.2 0.4 0-0.6 1.4-2.2 3.1-1.7 1.8-6.4 5.4-10.5 8.1-4.2 2.7-9.1 5.4-11 5.9-2 0.6-3.8 0.8-4 0.5-0.3-0.3-1-0.1-1.5 0.5-0.7 0.7-24.2 1-71 1.1-69.4 0.1-70.1 0-74.3-2.1-2.3-1.1-5.1-3.4-6.2-5.1-1.1-1.6-1.8-3-1.5-3 0.2 0-0.2-0.8-1.1-1.7-0.9-1-1.3-2.3-1-3 0.3-0.7 0.1-1.5-0.4-1.8-0.6-0.3-1-3.7-1.1-7.7 0-6 0.5-8.3 2.8-12.8 1.8-3.5 4.2-6.5 6.8-8.2 3.7-2.6 4.8-2.8 17.5-3.2 7.4-0.3 35.5-0.5 62.5-0.6 44-0.1 49.3-0.2 52.5-1.8 2-1 4.4-3.3 7.9-9.7l-2.7-3.3c-1.8-2.2-3.8-3.5-5.7-3.8-1.7-0.2-3.7-0.6-4.5-0.9-0.9-0.4-6.5-0.8-12.5-0.9-6.1-0.2-26.7-0.4-45.8-0.5-22 0-34.9-0.4-35.2-1.1-0.3-0.5-1-0.8-1.5-0.5-0.6 0.3-1.6 0.2-2.3-0.2-0.7-0.4-1.9-0.8-2.7-1-0.9-0.1-2.8-0.8-4.3-1.5-1.6-0.7-2.8-1.6-2.8-2 0-0.4-0.3-0.7-0.7-0.5-0.4 0.1-2.4-0.8-4.5-2-2.1-1.3-3.7-2.7-3.7-3.3 0-0.5-0.5-0.8-1-0.5-0.6 0.3-2.8-1.5-5-4-2.2-2.5-3.8-4.9-3.5-5.5 0.2-0.5-0.2-1.2-1-1.5-0.9-0.3-2.7-2.8-4-5.7-1.4-2.9-2.7-6.2-2.9-7.3-0.2-1.1-0.9-3.2-1.5-4.7-0.7-1.7-1.2-8.8-1.2-18 0-8.4 0.4-15.7 0.8-16.1 0.4-0.5 0.9-1.6 1-2.5 0.1-0.9 0.8-2.9 1.5-4.5 0.7-1.5 1.7-2.7 2.3-2.7 0.5 0 0.6-0.3 0.2-0.7-0.3-0.4 0.6-2.6 2.2-4.8 1.5-2.2 4.3-5.3 6.2-7 1.8-1.7 5.8-4.4 8.9-6.1 3-1.8 8.6-4.1 12.5-5.3 3.8-1.2 10.6-2.6 15-3.1 4.4-0.5 17.9-1.2 30-1.5 12.1-0.2 35.2-0.7 51.4-1 16.2-0.3 29.7-0.7 29.9-1 0.3-0.3 2.1-0.5 4.1-0.5zm238.6 2l3.9 2.8c2.2 1.5 5.4 4.6 7.3 7 3.2 4.2 3.3 4.3 3.3 15 0 7.1-0.5 11.9-1.4 14.2-0.8 1.9-3 4.9-4.8 6.6-1.8 1.7-4.7 3.6-6.3 4.2-1.7 0.6-5.5 1-8.5 0.8-3.1-0.2-5.8-0.4-6-0.5-0.3-0.1-9.1-0.1-19.5-0.1-10.5 0.1-24.6 0.3-31.3 0.6-6.7 0.2-13 0.7-14 1-1 0.4-2.2 0.4-2.7 0.1-0.6-0.2-4.9 0.1-9.5 0.9-4.7 0.7-8.8 1.2-9 1.2-0.3-0.1-2.3 0.6-4.5 1.6-2.2 1-4.8 2.5-5.8 3.4-1 1-1.8 1.4-1.8 1 0-0.4-1.4 0.9-3.2 3-1.8 2-3.6 3.9-4.1 4.2-0.4 0.3-0.7 0.7-0.5 1 0.1 0.3-0.6 2.5-1.6 5-1 2.5-2 5-2.1 5.5-0.1 0.6-0.2 1.2-0.3 1.5-0.1 0.3-0.5 2.8-0.8 5.5-0.3 2.8-0.6 8.2-0.7 12-0.1 3.9 0.1 7.7 0.5 8.5 0.4 0.8 1.7 3.7 2.8 6.3 1.1 2.6 2.1 4.9 2.1 5.2 0 0.3 1.4 1.8 3.2 3.3 1.8 1.5 5.3 4.1 7.8 5.7 2.4 1.5 7.2 3.7 10.5 4.7 3.3 1.1 10 2.6 15 3.5 5.4 1 13.9 1.6 21.5 1.5 6.8 0 17.4-0.3 23.5-0.6 6-0.3 16.6-1.1 23.5-1.7 11.9-1 12.7-1 17 1 2.6 1.2 5.5 3.7 7 5.8 2 3 2.5 5.1 2.7 11.5 0.1 4.3 0.5 8.2 0.7 8.6 0.3 0.4 0.3 3.4 0.2 6.7-0.2 3.3-1.1 7.4-2 9-1 1.7-3.2 3.9-4.9 5-3.1 2-5 2-53.8 2-38.9 0-51-0.3-52-1.2-0.8-0.7-1.7-1-1.9-0.7-0.3 0.3-2.5 0-4.8-0.5-2.3-0.6-4.2-1.5-4.2-2.1 0-0.5-0.7-0.8-1.5-0.5-0.9 0.3-2.1 0.2-2.8-0.2-0.7-0.4-1.7-0.8-2.2-0.8-0.6-0.1-1.8-0.2-2.8-0.3-1-0.1-2.5-1-3.4-1.9-0.9-1-1.8-1.7-2-1.5-0.2 0.1-0.7 0.2-1.1 0.2-0.4 0.1-1.8-0.8-3-2-1.2-1.1-2.4-1.9-2.5-1.7-0.1 0.1-2.6-1.3-5.5-3-2.9-1.8-5.2-3.8-5.2-4.5 0-0.7-0.3-0.9-0.8-0.5-0.4 0.4-3.8-2.3-7.4-6-3.7-3.7-6.5-7.1-6.3-7.5 0.3-0.4 0-0.8-0.5-0.8-0.6 0-2.7-2.3-4.7-5.2-2-2.9-3.7-5.8-3.8-6.5 0-0.7-0.4-1.3-0.8-1.3-0.4 0-1.8-2.8-3.1-6.2-1.4-3.5-2.6-7.6-2.7-9.3-0.2-1.6-0.8-3.6-1.4-4.4-0.7-0.9-0.9-8.4-0.8-20.5 0.2-10.5 0.7-19.5 1.2-20.1 0.5-0.5 0.7-1.4 0.4-2-0.3-0.5 0.1-2.1 0.8-3.5 0.7-1.4 1.2-3.3 1.1-4.2-0.1-1 0.2-2 0.8-2.3 0.5-0.3 0.7-0.9 0.5-1.5-0.3-0.5 0.5-4 1.9-7.7 1.3-3.7 3.1-8.6 4.1-10.8 0.9-2.2 3.6-6.7 6-10 2.3-3.3 5.8-7.4 7.6-9.1 1.9-1.8 6.5-5.2 10.4-7.7 3.8-2.5 10.3-5.9 14.5-7.7 4.1-1.8 9.9-3.9 13-4.8 3-0.8 7-1.7 9-1.9 1.9-0.2 10.7-0.6 19.5-0.9 8.8-0.3 16-0.7 16.1-0.7 0.1-0.1 15.2-0.1 66.9 0.3zm158.6 0.7c15.1 0.1 30.1 0.4 33.4 0.8 3.3 0.3 8 1.2 10.5 2 2.4 0.8 6.4 2.1 8.7 3 2.3 0.8 6.4 2.7 9 4.2 2.6 1.5 6.1 3.6 7.8 4.8 1.6 1.1 4.5 3.2 6.3 4.5 1.9 1.4 6.5 6.3 10.3 11 3.8 4.7 6.9 9.1 6.9 9.8 0 0.7 0.4 1.2 1 1.2 0.5 0 1.2 1 1.6 2.3 0.3 1.2 0.5 2.6 0.5 3-0.1 0.4 0.3 0.7 0.9 0.7 0.5 0 0.9 0.4 0.8 0.8-0.2 0.4 0.7 2.5 1.9 4.7 1.1 2.2 2.9 6.9 3.8 10.5 1.4 4.9 1.9 10.8 2 23.5 0.1 9.4-0.2 20.4-0.8 24.5-0.5 4.1-1.2 8-1.5 8.5-0.4 0.6-0.7 1.9-0.8 3-0.1 1.1-1.2 4-2.5 6.5-1.3 2.5-2.3 4.9-2.1 5.3 0.1 0.4-0.3 0.7-0.8 0.7-0.6 0-0.9 0.4-0.8 0.8 0.1 0.4-0.9 2.9-2.3 5.6-1.3 2.7-4 6.6-5.9 8.7-2 2.1-3.3 3.9-3 3.9 0.2 0-1.3 1.8-3.5 4-2.2 2.2-4.4 3.7-4.8 3.5-0.4-0.3-0.7 0-0.7 0.5 0 0.6-2.2 2.7-4.9 4.8-2.7 2-5.2 3.6-5.5 3.5-0.4-0.2-1.3 0.4-2.1 1.2-0.9 0.8-2 1.3-2.5 1-0.6-0.3-1-0.1-1 0.3 0 0.4-1.7 1.6-3.8 2.6-2 1-6.4 2.8-9.7 3.9-5.7 2-8.6 2.1-46.5 2.4-22.3 0.2-41.2 0-42-0.3-0.9-0.4-1.8-0.7-2.2-0.8-0.4 0-1-0.4-1.5-0.8-0.5-0.4-1.4-0.5-2.1-0.2-0.7 0.2-1.5 0-1.7-0.6-0.3-0.5-1.1-0.7-1.8-0.4-0.7 0.3-2.6 0-4.2-0.7-1.7-0.7-3.3-1.3-3.5-1.4-0.3-0.1-2.5-0.9-4.8-1.8-2.3-0.9-4.2-2.1-4.2-2.7 0-0.5-0.4-0.8-0.8-0.5-0.4 0.3-2.9-1-5.6-2.7-2.7-1.8-5.6-4.2-6.3-5.3-0.8-1.1-1.7-1.8-2.1-1.5-0.4 0.2-4.2-3.5-8.5-8.3-4.3-4.8-7.5-9.1-7.2-9.7 0.2-0.5 0.1-1-0.3-0.9-0.4 0-1.4-1.3-2.2-2.8-0.8-1.5-1.5-3-1.6-3.3 0-0.3-1.2-2.7-2.4-5.5-1.3-2.7-2.4-5.4-2.5-6 0-0.5-0.4-1.4-0.8-2-0.3-0.5-1.3-3.9-2.2-7.5-1.1-4.6-1.5-11.7-1.5-25 0-13.2 0.4-20.3 1.5-25 0.9-3.6 1.9-6.9 2.2-7.5 0.4-0.5 0.8-1.4 0.8-2 0.1-0.5 1.2-3.2 2.5-6 1.2-2.7 2.3-5.3 2.4-5.7 0-0.3 2.1-3.7 4.6-7.4 2.4-3.8 7.4-9.7 11-13.3 3.5-3.5 9.2-8.2 12.5-10.4 3.3-2.3 9.6-5.6 14-7.4 4.4-1.9 10.7-4 14-4.7 3.3-0.8 8.9-1.4 12.5-1.5 3.5-0.1 6.5-0.3 6.6-0.4 0.1-0.1 12.5-0.1 27.5 0zm-38.1 55.5c-3.1 1.3-7.7 4.4-10.4 6.9-2.8 2.6-6 6.9-7.7 10.4-1.6 3.3-3.4 9.1-3.9 12.8-0.7 4.7-0.7 8.8 0 13.5 0.6 3.7 2 8.7 3.1 11.2 1.1 2.5 3.5 6.3 5.3 8.5 1.8 2.2 5.4 5.5 8.1 7.2 2.7 1.8 7.4 4.1 10.5 5 4.6 1.6 9.2 1.8 30.5 1.8 21.2 0 25.8-0.2 30.5-1.8 3-0.9 7.7-3.2 10.4-5 2.7-1.7 6.4-5 8.2-7.2 1.8-2.2 4.1-6 5.2-8.5 1.1-2.5 2.5-7.5 3.1-11.2 0.7-4.8 0.7-8.8 0-13.5-0.6-3.7-2-8.8-3.1-11.3-1.1-2.5-3.4-6.3-5.2-8.5-1.8-2.2-5.5-5.4-8.2-7.2-2.7-1.8-7.2-3.9-9.9-4.8-3.9-1.3-10-1.8-27.5-2-12.4-0.2-25 0-28 0.4-3.1 0.4-8 1.9-11 3.3zm533.7-55.4c23.9 0.2 35.7 0.7 37.6 1.5 1.6 0.7 3.9 2.6 5.1 4.2 1.3 1.7 3 5.2 3.9 7.8 1.2 3.5 1.5 6.9 1.2 13-0.3 4.5-1.1 9.5-1.8 11-0.7 1.5-1.6 2.8-2 2.8-0.4-0.1-0.5 0.4-0.2 0.9 0.2 0.6-1.1 2.3-3 3.8-2 1.5-3.9 2.7-4.3 2.6-0.4-0.1-1.6 0.5-2.7 1.3-1.4 0.9-5.1 1.3-11.5 1.4-5.3 0-9.8-0.3-10-0.6-0.3-0.3-6.4-0.5-13.5-0.5-7.2 0.1-13.3 0.4-13.5 0.7-0.3 0.3-0.7 27.8-0.8 61.2-0.3 58.4-0.4 60.7-2.3 63.9-1.1 1.8-3 3.8-4.2 4.4-1.2 0.7-2.6 1.2-3 1-0.4-0.1-0.7 0.3-0.7 0.8 0 0.6-1.5 1.5-3.3 2-1.8 0.6-6.8 1.1-11.2 1-5.1 0-9.8-0.6-12.9-1.7-2.7-1-6.3-3.3-8.1-5.3-2.5-2.7-3.3-4.7-3.8-9-0.3-3-0.5-30.8-0.4-61.7 0.1-36.8-0.2-56.4-0.8-56.6-0.6-0.2-11.2-0.5-23.5-0.6-19.5-0.3-23.1-0.5-26.8-2.2-2.3-1-4.2-2.3-4.2-2.9 0-0.5-0.5-0.8-1-0.5-0.6 0.3-1.9-0.8-3-2.5-1.1-1.6-1.8-3-1.5-3 0.2 0-0.2-0.7-1-1.5-0.9-0.8-1.5-2.2-1.5-3 0-0.8-0.2-1.9-0.3-2.4-0.1-0.5-0.6-1.3-1-1.7-0.4-0.5-0.8-3.2-0.8-6.1 0-2.9 0.5-5.5 1.1-5.8 0.5-0.3 0.7-0.9 0.5-1.5-0.3-0.5 0.5-3.1 1.7-5.7 1.4-2.8 3.9-5.8 10.3-10.3h40.9c22.5 0 41.1-0.1 41.2-0.3 0.1-0.1 15.9-0.1 35.1 0.1z"/>
		<path id="Path 6" class="s0" d="m1492.5 508.7c2.8 0.2 6.8 0.2 9 0 2.2-0.2 0-0.3-5-0.3-5 0-6.8 0.1-4 0.3zm-148 3c2.8 0.2 7.5 0.2 10.5 0 3-0.2 0.8-0.3-5-0.3-5.8 0-8.3 0.1-5.5 0.3zm165 123c1.7 0.2 4.8 0.2 7 0 2.2-0.2 0.8-0.4-3-0.4-3.8 0-5.7 0.2-4 0.4zm-589.1 329.3c0.3 0.5 2.5 1 4.9 1 3-0.1 3.8-0.4 2.7-1-0.8-0.5-3-1-4.9-1-1.9 0-3.1 0.4-2.7 1z"/>
		<path id="Path 7" class="s1" d="m1705 962c-4.4 0.4-0.2 0.7 12.8 0.8 12.5 0.1 19-0.1 18.7-0.8-0.3-0.6-5.4-0.9-12.8-0.8-6.7 0.1-15.1 0.4-18.7 0.8zm-799.5 2c-0.3 0.6 2.3 1 7 1 4.7 0 7.3-0.4 7-1-0.3-0.5-3.4-1-7-1-3.5 0-6.6 0.5-7 1zm-391.5 124.7c8 0.2 20.6 0.2 28 0 7.4-0.1 0.9-0.3-14.5-0.3-15.4 0-21.5 0.2-13.5 0.3zm-28.8 40c-0.1 6.8 0.2 11.5 0.8 11.8 0.6 0.3 1.2-0.2 1.5-1 0.3-0.8 0.1-1.3-0.5-1-0.6 0.3-1.1-3.5-1.3-10.3l-0.3-10.7z"/>
		<path id="Path 8" class="s2" d="m1720.8 831.7c-0.2 0.4-1.5 0.8-2.8 1-1.4 0.2-4.6 1.3-7.3 2.5-2.6 1.3-4.7 2.9-4.7 3.5 0 0.7-1.2 1.6-2.6 1.9-1.5 0.3-2.8 1.3-3 2.2-0.2 1-1.5 3.7-3 6.2-2.4 4-2.7 5.5-2.7 13 0 5 0.6 9.8 1.4 11.7 0.8 1.7 3.4 5.5 5.9 8.4 2.9 3.4 6.4 6.1 10 7.8 4.2 2 7.1 2.6 12.5 2.6 5 0 8.3-0.6 11.3-2 2.4-1.1 4.2-2.3 4.2-2.8 0-0.4 0.7-0.7 1.5-0.7 0.9 0 3.1-1.6 5-3.5 1.9-1.9 4.7-6.1 6.1-9.3 1.7-3.6 2.7-7.7 2.8-11.2 0-3-0.5-7.5-1.2-10-0.7-2.5-3-6.7-5-9.4-2-2.8-4-4.9-4.4-4.8-0.5 0.1-2-0.9-3.5-2.3-1.6-1.4-3.4-2.5-4-2.5-0.7 0-1.4 0.1-1.5 0.2-0.2 0.1-1.3-0.4-2.5-1-1.3-0.7-4.5-1.4-7.2-1.7-2.7-0.2-5-0.1-5.3 0.2zm-809.3 1.4c-0.3 0.5-1 0.7-1.5 0.4-0.5-0.3-1-0.1-1 0.5 0 0.5-0.5 0.8-1 0.5-0.5-0.3-1-0.1-1 0.5 0 0.5-0.7 1-1.6 1-0.8 0-3.7 2.2-6.5 5-2.7 2.7-5.6 6.5-6.5 8.2-0.9 1.9-1.8 6.6-2 10.8-0.2 4.1 0.2 9.5 0.9 12 0.9 3.4 2.8 6.2 7.7 11.1 5 5.1 7.5 6.8 11 7.7 2.5 0.6 7.6 0.9 11.5 0.7 3.9-0.2 9-1.2 11.4-2.2 2.9-1.1 6.4-4 9.8-7.8 4-4.5 5.6-7.3 6.4-11 0.7-2.8 0.9-7.7 0.6-11-0.3-3.3-1.2-7.6-1.9-9.5-0.8-1.9-3.5-5.6-5.9-8.1-2.4-2.5-6.2-5.7-8.4-6.9-3.3-2-5.6-2.4-12.8-2.6-4.8-0.1-9 0.2-9.2 0.7z"/>
	</g>
</svg>